<?xml version="1.0" encoding="UTF-8" standalone="no"?>
<!-- Created with Inkscape (http://www.inkscape.org/) -->

<svg
   xmlns:dc="http://purl.org/dc/elements/1.1/"
   xmlns:cc="http://creativecommons.org/ns#"
   xmlns:rdf="http://www.w3.org/1999/02/22-rdf-syntax-ns#"
   xmlns:svg="http://www.w3.org/2000/svg"
   xmlns="http://www.w3.org/2000/svg"
   xmlns:sodipodi="http://sodipodi.sourceforge.net/DTD/sodipodi-0.dtd"
   xmlns:inkscape="http://www.inkscape.org/namespaces/inkscape"
   version="1.1"
   id="svg2"
   xml:space="preserve"
   width="621.33331"
   height="137.33333"
   viewBox="0 0 621.33331 137.33333"
   sodipodi:docname="figure4.svg"
   inkscape:version="0.92.0 r"><metadata
     id="metadata8"><rdf:RDF><cc:Work
         rdf:about=""><dc:format>image/svg+xml</dc:format><dc:type
           rdf:resource="http://purl.org/dc/dcmitype/StillImage" /><dc:title></dc:title></cc:Work></rdf:RDF></metadata><defs
     id="defs6"><clipPath
       clipPathUnits="userSpaceOnUse"
       id="clipPath20"><path
         d="M 0,0 H 4654.6 V 1027.73 H 0 Z"
         id="path18"
         inkscape:connector-curvature="0" /></clipPath></defs><sodipodi:namedview
     pagecolor="#ffffff"
     bordercolor="#666666"
     borderopacity="1"
     objecttolerance="10"
     gridtolerance="10"
     guidetolerance="10"
     inkscape:pageopacity="0"
     inkscape:pageshadow="2"
     inkscape:window-width="1656"
     inkscape:window-height="760"
     id="namedview4"
     showgrid="false"
     inkscape:zoom="1.2392704"
     inkscape:cx="435.93837"
     inkscape:cy="124.19585"
     inkscape:window-x="0"
     inkscape:window-y="0"
     inkscape:window-maximized="0"
     inkscape:current-layer="g10" /><g
     id="g10"
     inkscape:groupmode="layer"
     inkscape:label="figure4"
     transform="matrix(1.3333333,0,0,-1.3333333,0,137.33333)"><path
       inkscape:connector-curvature="0"
       id="path22"
       style="fill:none;stroke:#100f0d;stroke-width:2;stroke-linecap:butt;stroke-linejoin:miter;stroke-miterlimit:4;stroke-dasharray:none;stroke-opacity:1"
       d="M 171.772,61.357 171.2,4.78594" /><path
       inkscape:connector-curvature="0"
       id="path24"
       style="fill:none;stroke:#100f0d;stroke-width:2;stroke-linecap:butt;stroke-linejoin:miter;stroke-miterlimit:4;stroke-dasharray:none;stroke-opacity:1"
       d="m 168.608,29.2734 -37.027,0.3579" /><path
       inkscape:connector-curvature="0"
       id="path26"
       style="fill:none;stroke:#100f0d;stroke-width:2;stroke-linecap:butt;stroke-linejoin:miter;stroke-miterlimit:4;stroke-dasharray:none;stroke-opacity:1"
       d="m 185.296,29.1121 -11.357,0.1098" /><path
       inkscape:connector-curvature="0"
       id="path28"
       style="fill:#100f0d;fill-opacity:1;fill-rule:nonzero;stroke:none;stroke-width:0.1"
       d="m 185.174,32.1215 c 1.661,-0.0164 2.995,-1.3762 2.979,-3.0371 -0.016,-1.661 -1.376,-2.9946 -3.037,-2.9785 -1.661,0.016 -2.994,1.3757 -2.978,3.0367 0.016,1.6609 1.375,2.9949 3.036,2.9789" /><path
       inkscape:connector-curvature="0"
       id="path30"
       style="fill:none;stroke:#100f0d;stroke-width:2;stroke-linecap:butt;stroke-linejoin:miter;stroke-miterlimit:4;stroke-dasharray:none;stroke-opacity:1"
       d="M 448.725,21.5473 448.507,0.0109375" /><path
       inkscape:connector-curvature="0"
       id="path32"
       style="fill:none;stroke:#100f0d;stroke-width:2;stroke-linecap:butt;stroke-linejoin:miter;stroke-miterlimit:4;stroke-dasharray:none;stroke-opacity:1"
       d="M 449.078,56.582 448.782,27.2168" /><path
       inkscape:connector-curvature="0"
       id="path34"
       style="fill:none;stroke:#100f0d;stroke-width:2;stroke-linecap:butt;stroke-linejoin:miter;stroke-miterlimit:4;stroke-dasharray:none;stroke-opacity:1"
       d="m 462.602,24.3367 -53.714,0.5192" /><path
       inkscape:connector-curvature="0"
       id="path36"
       style="fill:#100f0d;fill-opacity:1;fill-rule:nonzero;stroke:none;stroke-width:0.1"
       d="m 462.481,27.3461 c 1.661,-0.016 2.995,-1.3762 2.979,-3.0367 -0.017,-1.661 -1.376,-2.9949 -3.037,-2.9789 -1.661,0.0164 -2.995,1.3761 -2.979,3.0371 0.016,1.6605 1.376,2.9945 3.037,2.9785" /><g
       id="g38"><text
         id="text44"
         style="font-variant:normal;font-weight:normal;font-size:12px;font-family:Arial;-inkscape-font-specification:ArialMT;writing-mode:lr-tb;fill:#100f0d;fill-opacity:1;fill-rule:nonzero;stroke:none"
         transform="matrix(1,0,0,-1,193.111,92.475)"><tspan
           id="tspan40"
           sodipodi:role="line"
           y="0"
           x="0 7.3319998 14.004 18 24.672001 27.336 34.007999 40.68 47.352001 54.023998 57.360001 67.356003 74.028 80.028 86.699997">Forbidden Moves</tspan><tspan
           id="tspan42"
           sodipodi:role="line"
           y="21.865601"
           x="-99.023003 -89.448784 169.946 179.522 182.858">ΦΙΦΙΙ</tspan></text>
</g><path
       inkscape:connector-curvature="0"
       id="path46"
       style="fill:none;stroke:#100f0d;stroke-width:2;stroke-linecap:butt;stroke-linejoin:miter;stroke-miterlimit:4;stroke-dasharray:none;stroke-opacity:1"
       d="M 336.016,57.6617 335.444,1.08984" /><path
       inkscape:connector-curvature="0"
       id="path48"
       style="fill:none;stroke:#100f0d;stroke-width:2;stroke-linecap:butt;stroke-linejoin:miter;stroke-miterlimit:4;stroke-dasharray:none;stroke-opacity:1"
       d="m 318.455,28.5836 -53.714,0.5191" /><path
       inkscape:connector-curvature="0"
       id="path50"
       style="fill:#100f0d;fill-opacity:1;fill-rule:nonzero;stroke:none;stroke-width:0.1"
       d="m 318.334,31.5926 c 1.661,-0.016 2.994,-1.3758 2.978,-3.0367 -0.016,-1.661 -1.376,-2.9946 -3.036,-2.9786 -1.661,0.0161 -2.995,1.3758 -2.979,3.0368 0.016,1.6609 1.376,2.9945 3.037,2.9785" /><path
       inkscape:connector-curvature="0"
       id="path52"
       style="fill:none;stroke:#100f0d;stroke-width:2;stroke-linecap:butt;stroke-linejoin:miter;stroke-miterlimit:4;stroke-dasharray:none;stroke-opacity:1"
       d="M 53.7238,33.0992 0.00976563,33.618" /><path
       inkscape:connector-curvature="0"
       id="path54"
       style="fill:#100f0d;fill-opacity:1;fill-rule:nonzero;stroke:none;stroke-width:0.1"
       d="m 53.6027,36.1082 c 1.661,-0.016 2.9946,-1.3758 2.9786,-3.0367 -0.0161,-1.661 -1.3758,-2.9945 -3.0368,-2.9785 -1.6609,0.016 -2.9945,1.3758 -2.9785,3.0367 0.016,1.6609 1.3758,2.9945 3.0367,2.9785" /><path
       inkscape:connector-curvature="0"
       id="path56"
       style="fill:none;stroke:#100f0d;stroke-width:2;stroke-linecap:butt;stroke-linejoin:miter;stroke-miterlimit:4;stroke-dasharray:none;stroke-opacity:1"
       d="M 66.7828,61.357 66.2113,4.78594" /><path
       inkscape:connector-curvature="0"
       id="path58"
       style="fill:none;stroke:#808080;stroke-width:1;stroke-linecap:butt;stroke-linejoin:miter;stroke-miterlimit:4;stroke-dasharray:none;stroke-opacity:1"
       d="m 84.325,30.4512 h 29.714" /><path
       inkscape:connector-curvature="0"
       id="path60"
       style="fill:#808080;fill-opacity:1;fill-rule:nonzero;stroke:none;stroke-width:0.1"
       d="m 79.9473,30.4512 6.1687,-2.5207 -1.4637,2.5207 1.4637,2.5199 -6.1687,-2.5199" /><path
       inkscape:connector-curvature="0"
       id="path62"
       style="fill:#808080;fill-opacity:1;fill-rule:nonzero;stroke:none;stroke-width:0.1"
       d="m 118.417,30.4512 -6.169,-2.5207 1.464,2.5207 -1.464,2.5199 6.169,-2.5199" /><path
       inkscape:connector-curvature="0"
       id="path64"
       style="fill:none;stroke:#808080;stroke-width:1;stroke-linecap:butt;stroke-linejoin:miter;stroke-miterlimit:4;stroke-dasharray:none;stroke-opacity:1"
       d="m 357.595,27.2168 h 29.714" /><path
       inkscape:connector-curvature="0"
       id="path66"
       style="fill:#808080;fill-opacity:1;fill-rule:nonzero;stroke:none;stroke-width:0.1"
       d="m 353.217,27.2168 6.169,-2.5207 -1.464,2.5207 1.464,2.5199 -6.169,-2.5199" /><path
       inkscape:connector-curvature="0"
       id="path68"
       style="fill:#808080;fill-opacity:1;fill-rule:nonzero;stroke:none;stroke-width:0.1"
       d="m 391.686,27.2168 -6.168,-2.5207 1.464,2.5207 -1.464,2.5199 6.168,-2.5199" /><path
       inkscape:connector-curvature="0"
       id="path70"
       style="fill:none;stroke:#808080;stroke-width:1;stroke-linecap:butt;stroke-linejoin:miter;stroke-miterlimit:4;stroke-dasharray:none;stroke-opacity:1"
       d="M 103.243,39.6723 94.0879,21.5473" /><path
       inkscape:connector-curvature="0"
       id="path72"
       style="fill:none;stroke:#808080;stroke-width:1;stroke-linecap:butt;stroke-linejoin:miter;stroke-miterlimit:4;stroke-dasharray:none;stroke-opacity:1"
       d="m 378.761,36.2793 -9.156,-18.125" /><path
       inkscape:connector-curvature="0"
       id="path74"
       style="fill:none;stroke:#808080;stroke-width:1;stroke-linecap:butt;stroke-linejoin:miter;stroke-miterlimit:4;stroke-dasharray:none;stroke-opacity:1"
       d="m 368.613,35.7055 11.14,-16.9778" /><path
       inkscape:connector-curvature="0"
       id="path76"
       style="fill:none;stroke:#808080;stroke-width:1;stroke-linecap:butt;stroke-linejoin:miter;stroke-miterlimit:4;stroke-dasharray:none;stroke-opacity:1"
       d="M 93.0152,38.9398 104.155,21.9621" /></g></svg>