<?xml version="1.0" encoding="UTF-8" standalone="no"?>
<!-- Created with Inkscape (http://www.inkscape.org/) -->

<svg
   xmlns:dc="http://purl.org/dc/elements/1.1/"
   xmlns:cc="http://creativecommons.org/ns#"
   xmlns:rdf="http://www.w3.org/1999/02/22-rdf-syntax-ns#"
   xmlns:svg="http://www.w3.org/2000/svg"
   xmlns="http://www.w3.org/2000/svg"
   xmlns:sodipodi="http://sodipodi.sourceforge.net/DTD/sodipodi-0.dtd"
   xmlns:inkscape="http://www.inkscape.org/namespaces/inkscape"
   version="1.1"
   id="svg2"
   xml:space="preserve"
   width="732"
   height="836"
   viewBox="0 0 732 836"
   sodipodi:docname="figure7.svg"
   inkscape:version="0.92.0 r"><metadata
     id="metadata8"><rdf:RDF><cc:Work
         rdf:about=""><dc:format>image/svg+xml</dc:format><dc:type
           rdf:resource="http://purl.org/dc/dcmitype/StillImage" /><dc:title /></cc:Work></rdf:RDF></metadata><defs
     id="defs6"><inkscape:path-effect
       crossing_points_vector=""
       switcher_size="10"
       add_other_stroke_width="false"
       add_stroke_width="false"
       prop_to_stroke_width="true"
       interruption_width="3"
       is_visible="true"
       id="path-effect4593"
       effect="knot" /><inkscape:path-effect
       effect="knot"
       id="path-effect4583"
       is_visible="true"
       interruption_width="3"
       prop_to_stroke_width="true"
       add_stroke_width="true"
       add_other_stroke_width="false"
       switcher_size="10"
       crossing_points_vector="" /><clipPath
       clipPathUnits="userSpaceOnUse"
       id="clipPath20"><path
         d="M 0,0 H 5485.14 V 6267.37 H 0 Z"
         id="path18"
         inkscape:connector-curvature="0" /></clipPath></defs><sodipodi:namedview
     pagecolor="#ffffff"
     bordercolor="#666666"
     borderopacity="1"
     objecttolerance="10"
     gridtolerance="10"
     guidetolerance="10"
     inkscape:pageopacity="0"
     inkscape:pageshadow="2"
     inkscape:window-width="851"
     inkscape:window-height="775"
     id="namedview4"
     showgrid="false"
     showguides="true"
     inkscape:guide-bbox="true"
     inkscape:zoom="0.7984555"
     inkscape:cx="268.69341"
     inkscape:cy="328.91341"
     inkscape:window-x="945"
     inkscape:window-y="59"
     inkscape:window-maximized="0"
     inkscape:current-layer="g16"><sodipodi:guide
       position="440.85112,196.62962"
       orientation="1,0"
       id="guide4585"
       inkscape:locked="false" /><sodipodi:guide
       position="320.61899,314.3569"
       orientation="1,0"
       id="guide4587"
       inkscape:locked="false" /><sodipodi:guide
       position="494.70509,323.12383"
       orientation="1,0"
       id="guide4589"
       inkscape:locked="false" /><sodipodi:guide
       position="559.83082,261.75535"
       orientation="1,0"
       id="guide4595"
       inkscape:locked="false" /></sodipodi:namedview><g
     id="g10"
     inkscape:groupmode="layer"
     inkscape:label="figure7"
     transform="matrix(1.3333333,0,0,-1.3333333,0,836)"><g
       id="g12"
       transform="scale(0.1)"><g
         id="g14"><g
           id="g16"
           clip-path="url(#clipPath20)"><path
             inkscape:original-d="m 1999.2,287.242 c 0,0 417.0344,401.85225 798.0046,629.20479 394.6242,235.50091 1075.184,462.11531 1374.0206,112.99411 62.565,-73.09264 3.801,-216.25646 -67.7548,-280.57346 C 3751.7128,432.69469 3160.1621,470.2175 2696.6314,564.22793 2466.8562,610.82951 2023.1486,695.50748 2090.0158,920.22313 2248.9495,1454.34 3422.183,1283.7111 3759.8963,840.43868 3934.3779,611.41932 3559.2,287.242 3559.2,287.242"
             inkscape:path-effect="#path-effect4593"
             sodipodi:nodetypes="csaaaasc"
             inkscape:connector-curvature="0"
             id="path4591"
             d="m 1999.2,287.242 c 0,0 417.0344,401.85225 798.0046,629.20479 120.4225,71.86487 267.4717,142.90221 422.1749,197.00411 m 189.7213,56.1509 c 295.634,70.8518 591.2686,59.4445 762.1244,-140.1609 62.565,-73.09264 3.801,-216.25646 -67.7548,-280.57346 -351.7576,-316.17275 -943.3083,-278.64994 -1406.839,-184.63951 -64.2149,13.02367 -145.1385,29.02121 -226.9568,50.21815 m -139.4496,42.30038 c -155.2825,55.91037 -277.6093,137.78901 -240.2092,263.47667 158.9337,534.11687 1332.1672,363.48797 1669.8805,-79.78445 48.8007,-64.05435 54.6036,-135.55255 37.6432,-205.31993 M 3731.2296,487.64304 C 3658.5554,373.09132 3559.2,287.242 3559.2,287.242"
             style="fill:none;fill-rule:evenodd;stroke:#0000ff;stroke-width:40;stroke-linecap:butt;stroke-linejoin:miter;stroke-miterlimit:4;stroke-dasharray:none;stroke-opacity:1" /><path
             style="fill:none;fill-rule:evenodd;stroke:#0000ff;stroke-width:40;stroke-linecap:butt;stroke-linejoin:miter;stroke-miterlimit:4;stroke-dasharray:none;stroke-opacity:1"
             d="m 1999.2,3040.57 c 0,0 432.8207,687.8448 798.0046,1021.0798 143.845,131.2604 332.7697,292.7705 528.755,407.6071 m 150.497,77.3916 c 192.7109,84.1479 382.9149,104.9585 535.0853,-9.4486 293.3822,-220.5751 215.1722,-560.9975 63.7491,-768.8545 -277.8391,-381.3869 -930.0265,-467.3888 -1378.6596,-321.1737 -79.7456,25.9901 -158.5038,66.9102 -231.5802,118.8874 m -122.6569,102.9568 c -135.8925,133.7414 -234.5034,306.1384 -252.3785,481.3395 -23.4701,230.0402 52.6188,495.1793 337.7144,605.9479 577.9053,224.5344 1162.7243,-285.3013 1294.5936,-769.7176 33.5714,-123.323 22.3014,-270.0894 -6.0428,-407.7835 m -51.4252,-194.3376 C 3614.8162,3227.4208 3559.2,3113.07 3559.2,3113.07"
             id="path4581"
             inkscape:connector-curvature="0"
             sodipodi:nodetypes="cssaaassc"
             inkscape:path-effect="#path-effect4583"
             inkscape:original-d="m 1999.2,3040.57 c 0,0 432.8207,687.8448 798.0046,1021.0798 321.1126,293.0194 866.8749,736.7847 1214.3373,475.5501 293.3822,-220.5751 215.1722,-560.9975 63.7491,-768.8545 -277.8391,-381.3869 -930.0265,-467.3888 -1378.6596,-321.1737 -294.3236,95.9237 -575.1954,395.2218 -606.6156,703.1837 -23.4701,230.0402 52.6188,495.1793 337.7144,605.9479 577.9053,224.5344 1162.7243,-285.3013 1294.5936,-769.7176 C 3816.2446,3641.5717 3559.2,3113.07 3559.2,3113.07" /><path
             d="m 3522.19,1708.26 c -242.89,-113.46 -512.73,-176.65 -796.94,-176.65 -244.69,0 -478.74,46.84 -694.1,132.28"
             style="fill:#ffffff;fill-opacity:1;fill-rule:nonzero;stroke:none"
             id="path26"
             inkscape:connector-curvature="0" /><path
             id="path28"
             style="fill:none;stroke:#231f20;stroke-width:40;stroke-linecap:butt;stroke-linejoin:miter;stroke-miterlimit:10;stroke-dasharray:none;stroke-opacity:1"
             d="m 3522.19,1708.26 c -242.89,-113.46 -512.73,-176.65 -796.94,-176.65 -244.69,0 -478.74,46.84 -694.1,132.28 l -64.82,27.12 C 1279.11,1993.73 797.719,2695.08 797.719,3511.94 c 0,811.6684 475.2992,1509.2858 1155.5435,1815.1008 l 97.411,40.5585 c 209.9568,80.5975 437.2583,124.6607 674.5765,124.6607 274.4606,0 535.5234,-58.9339 771.8533,-165.1563 l 84.4147,-40.479 C 4216.4259,4962.6593 4652.79,4289.6538 4652.79,3511.94 c 0,-772.23 -430.22,-1441.22 -1057.86,-1767.78 z"
             inkscape:connector-curvature="0"
             sodipodi:nodetypes="csccsccsccscc" /><path
             d="m 4652.71,3494.93 c 0,-405.91 -829.01,-734.36 -1853.51,-734.36"
             style="fill:none;stroke:#231f20;stroke-width:40;stroke-linecap:butt;stroke-linejoin:miter;stroke-miterlimit:10;stroke-dasharray:none;stroke-opacity:1"
             id="path30"
             inkscape:connector-curvature="0" /><path
             d="m 797.719,3494.93 c 0,-405.91 895.191,-734.36 2001.481,-734.36"
             style="fill:none;stroke:#231f20;stroke-width:40;stroke-linecap:butt;stroke-linejoin:miter;stroke-miterlimit:10;stroke-dasharray:none;stroke-opacity:1"
             id="path32"
             inkscape:connector-curvature="0" /><path
             d="m 2085.9,3040.57 c 0,-47.88 -38.82,-86.7 -86.7,-86.7 -47.88,0 -86.69,38.82 -86.69,86.7 0,47.88 38.81,86.69 86.69,86.69 47.88,0 86.7,-38.81 86.7,-86.69"
             style="fill:#100f0d;fill-opacity:1;fill-rule:nonzero;stroke:none"
             id="path48"
             inkscape:connector-curvature="0" /><path
             d="m 3645.9,3113.07 c 0,-47.88 -38.82,-86.7 -86.7,-86.7 -47.88,0 -86.69,38.82 -86.69,86.7 0,47.88 38.81,86.69 86.69,86.69 47.88,0 86.7,-38.81 86.7,-86.69"
             style="fill:#100f0d;fill-opacity:1;fill-rule:nonzero;stroke:none"
             id="path52"
             inkscape:connector-curvature="0" /><path
             d="m 2779,1790.37 c 0,-29.68 -24.06,-53.75 -53.75,-53.75 -29.68,0 -53.75,24.07 -53.75,53.75 0,29.69 24.07,53.75 53.75,53.75 29.69,0 53.75,-24.06 53.75,-53.75"
             style="fill:#00adef;fill-opacity:1;fill-rule:nonzero;stroke:none"
             id="path56"
             inkscape:connector-curvature="0" /><path
             d="m 2779,1790.37 c 0,-29.68 -24.06,-53.75 -53.75,-53.75 -29.68,0 -53.75,24.07 -53.75,53.75 0,29.69 24.07,53.75 53.75,53.75 29.69,0 53.75,-24.06 53.75,-53.75 z"
             style="fill:#0000ff;stroke:#0000ff;stroke-width:10;stroke-linecap:butt;stroke-linejoin:miter;stroke-miterlimit:10;stroke-dasharray:none;stroke-opacity:1"
             id="path58"
             inkscape:connector-curvature="0" /><path
             d="M 2725.25,3127.75 V 2026.24"
             style="fill:none;stroke:#12100f;stroke-width:30;stroke-linecap:butt;stroke-linejoin:miter;stroke-miterlimit:10;stroke-dasharray:none;stroke-opacity:1"
             id="path60"
             inkscape:connector-curvature="0" /><path
             d="m 2725.25,1933.9 c -16.12,43.45 -43.62,97.36 -72.76,130.78 l 72.76,-26.32 72.75,26.32 c -29.13,-33.42 -56.64,-87.33 -72.75,-130.78"
             style="fill:#12100f;fill-opacity:1;fill-rule:nonzero;stroke:none"
             id="path62"
             inkscape:connector-curvature="0" /><path
             inkscape:connector-curvature="0"
             id="path4601"
             style="fill:none;stroke:#ffffff;stroke-width:52.50000131;stroke-linecap:butt;stroke-linejoin:miter;stroke-miterlimit:10;stroke-dasharray:none;stroke-opacity:1"
             d="M 3559.2,2788.9 V 287.242" /><path
             d="M 3559.2,2788.9 V 287.242"
             style="fill:none;stroke:#12100f;stroke-width:30;stroke-linecap:butt;stroke-linejoin:miter;stroke-miterlimit:10;stroke-dasharray:none;stroke-opacity:1"
             id="path72"
             inkscape:connector-curvature="0" /><path
             d="M 3559.2,3113.07 V 2862.24"
             style="fill:none;stroke:#12100f;stroke-width:30;stroke-linecap:butt;stroke-linejoin:miter;stroke-miterlimit:10;stroke-dasharray:none;stroke-opacity:1"
             id="path74"
             inkscape:connector-curvature="0" /><path
             d="M 15.2344,14.3711 3748.86,5 5469.9,1265.56 l -3733.62,9.37 z"
             style="fill:none;stroke:#12100f;stroke-width:10;stroke-linecap:butt;stroke-linejoin:miter;stroke-miterlimit:10;stroke-dasharray:none;stroke-opacity:1"
             id="path76"
             inkscape:connector-curvature="0" /><path
             d="M 1999.2,3040.57 V 2862.23"
             style="fill:none;stroke:#12100f;stroke-width:30;stroke-linecap:butt;stroke-linejoin:miter;stroke-miterlimit:10;stroke-dasharray:none;stroke-opacity:1"
             id="path80"
             inkscape:connector-curvature="0" /><path
             sodipodi:nodetypes="cc"
             inkscape:connector-curvature="0"
             id="path4597"
             style="fill:none;stroke:#ffffff;stroke-width:52.50000131;stroke-linecap:butt;stroke-linejoin:miter;stroke-miterlimit:10;stroke-dasharray:none;stroke-opacity:1"
             d="m 3559.2,3113.07 -19.39,3145.4592" /><path
             d="m 3559.2,3113.07 -19.39,3145.4592"
             style="fill:none;stroke:#12100f;stroke-width:30;stroke-linecap:butt;stroke-linejoin:miter;stroke-miterlimit:10;stroke-dasharray:none;stroke-opacity:1"
             id="path84"
             inkscape:connector-curvature="0"
             sodipodi:nodetypes="cc" /><path
             sodipodi:nodetypes="cc"
             inkscape:connector-curvature="0"
             id="path4599"
             style="fill:none;stroke:#ffffff;stroke-width:52.50000131;stroke-linecap:butt;stroke-linejoin:miter;stroke-miterlimit:10;stroke-dasharray:none;stroke-opacity:1"
             d="m 1999.2,3040.57 0,3193.2503" /><path
             d="m 1999.2,3040.57 0,3193.2503"
             style="fill:none;stroke:#12100f;stroke-width:30;stroke-linecap:butt;stroke-linejoin:miter;stroke-miterlimit:10;stroke-dasharray:none;stroke-opacity:1"
             id="path88"
             inkscape:connector-curvature="0"
             sodipodi:nodetypes="cc" /><path
             d="m 3645.9,3113.07 c 0,-47.88 -38.82,-86.7 -86.7,-86.7 -47.88,0 -86.69,38.82 -86.69,86.7 0,47.88 38.81,86.69 86.69,86.69 47.88,0 86.7,-38.81 86.7,-86.69 z"
             style="fill:#000000;stroke:#000000;stroke-width:40;stroke-linecap:butt;stroke-linejoin:miter;stroke-miterlimit:10;stroke-dasharray:none;stroke-opacity:1"
             id="path54"
             inkscape:connector-curvature="0" /><path
             d="m 2085.9,3040.57 c 0,-47.88 -38.82,-86.7 -86.7,-86.7 -47.88,0 -86.69,38.82 -86.69,86.7 0,47.88 38.81,86.69 86.69,86.69 47.88,0 86.7,-38.81 86.7,-86.69 z"
             style="fill:#000000;stroke:#000000;stroke-width:40;stroke-linecap:butt;stroke-linejoin:miter;stroke-miterlimit:10;stroke-dasharray:none;stroke-opacity:1"
             id="path50"
             inkscape:connector-curvature="0" /><path
             inkscape:connector-curvature="0"
             id="path4603"
             style="fill:none;stroke:#ffffff;stroke-width:52.50000131;stroke-linecap:butt;stroke-linejoin:miter;stroke-miterlimit:10;stroke-dasharray:none;stroke-opacity:1"
             d="M 1999.2,2788.9 V 287.242" /><path
             d="M 1999.2,2788.9 V 287.242"
             style="fill:none;stroke:#12100f;stroke-width:30;stroke-linecap:butt;stroke-linejoin:miter;stroke-miterlimit:10;stroke-dasharray:none;stroke-opacity:1"
             id="path78"
             inkscape:connector-curvature="0" /><path
             d="m 3576.06,296.82 c 0,-9.308 -7.55,-16.859 -16.86,-16.859 -9.31,0 -16.86,7.551 -16.86,16.859 0,9.309 7.55,16.86 16.86,16.86 9.31,0 16.86,-7.551 16.86,-16.86"
             style="fill:#100f0d;fill-opacity:1;fill-rule:nonzero;stroke:none"
             id="path90"
             inkscape:connector-curvature="0" /><path
             d="m 3592.2784,296.81953 c 0,-18.26193 -14.8127,-33.07669 -33.0784,-33.07669 -18.2658,0 -33.0784,14.81476 -33.0784,33.07669 0,18.2639 14.8126,33.07867 33.0784,33.07867 18.2657,0 33.0784,-14.81477 33.0784,-33.07867 z"
             style="fill:#000000;stroke:#000000;stroke-width:40;stroke-linecap:butt;stroke-linejoin:miter;stroke-miterlimit:10;stroke-dasharray:none;stroke-opacity:1"
             id="path92"
             inkscape:connector-curvature="0" /><path
             d="m 2016.06,287.242 c 0,-9.32 -7.55,-16.863 -16.86,-16.863 -9.31,0 -16.86,7.543 -16.86,16.863 0,9.309 7.55,16.848 16.86,16.848 9.31,0 16.86,-7.539 16.86,-16.848"
             style="fill:#100f0d;fill-opacity:1;fill-rule:nonzero;stroke:none"
             id="path94"
             inkscape:connector-curvature="0" /><path
             d="m 2032.2784,287.24924 c 0,-18.28663 -14.8128,-33.08664 -33.0784,-33.08664 -18.2657,0 -33.0784,14.80001 -33.0784,33.08664 0,18.26504 14.8127,33.0572 33.0784,33.0572 18.2656,0 33.0784,-14.79216 33.0784,-33.0572 z"
             style="fill:#000000;stroke:#000000;stroke-width:40;stroke-linecap:butt;stroke-linejoin:miter;stroke-miterlimit:10;stroke-dasharray:none;stroke-opacity:1"
             id="path96"
             inkscape:connector-curvature="0" /></g></g></g></g></svg>