<?xml version="1.0" encoding="UTF-8" standalone="no"?>
<!-- Created with Inkscape (http://www.inkscape.org/) -->

<svg
   xmlns:dc="http://purl.org/dc/elements/1.1/"
   xmlns:cc="http://creativecommons.org/ns#"
   xmlns:rdf="http://www.w3.org/1999/02/22-rdf-syntax-ns#"
   xmlns:svg="http://www.w3.org/2000/svg"
   xmlns="http://www.w3.org/2000/svg"
   xmlns:sodipodi="http://sodipodi.sourceforge.net/DTD/sodipodi-0.dtd"
   xmlns:inkscape="http://www.inkscape.org/namespaces/inkscape"
   version="1.1"
   id="svg2"
   xml:space="preserve"
   width="630.66669"
   height="292"
   viewBox="0 0 630.66669 292"
   sodipodi:docname="figure3.svg"
   inkscape:version="0.92.0 r"><metadata
     id="metadata8"><rdf:RDF><cc:Work
         rdf:about=""><dc:format>image/svg+xml</dc:format><dc:type
           rdf:resource="http://purl.org/dc/dcmitype/StillImage" /><dc:title></dc:title></cc:Work></rdf:RDF></metadata><defs
     id="defs6"><clipPath
       clipPathUnits="userSpaceOnUse"
       id="clipPath20"><path
         d="M 0,0 H 4724.44 V 2182.28 H 0 Z"
         id="path18"
         inkscape:connector-curvature="0" /></clipPath></defs><sodipodi:namedview
     pagecolor="#ffffff"
     bordercolor="#666666"
     borderopacity="1"
     objecttolerance="10"
     gridtolerance="10"
     guidetolerance="10"
     inkscape:pageopacity="0"
     inkscape:pageshadow="2"
     inkscape:window-width="1068"
     inkscape:window-height="1053"
     id="namedview4"
     showgrid="false"
     inkscape:zoom="0.86332802"
     inkscape:cx="309.70797"
     inkscape:cy="193.76349"
     inkscape:window-x="0"
     inkscape:window-y="0"
     inkscape:window-maximized="0"
     inkscape:current-layer="g10" /><g
     id="g10"
     inkscape:groupmode="layer"
     inkscape:label="figure3"
     transform="matrix(1.3333333,0,0,-1.3333333,0,292)"><path
       inkscape:connector-curvature="0"
       id="path22"
       style="fill:none;stroke:#100f0d;stroke-width:2;stroke-linecap:butt;stroke-linejoin:miter;stroke-miterlimit:4;stroke-dasharray:none;stroke-opacity:1"
       d="m 21.5074,171.967 c 3.0715,5.583 6.9899,9.85 11.6899,7.868 6.7933,-2.865 4.755,-19.813 -2.286,-22 -7.2898,-2.265 -12.2679,10.247 -14.857,17.428 -2.3258,6.452 0.2859,20.572 0.2859,20.572 m -0.5714,-60.857 c 0,0 -2.5153,16.69 0.2855,24.285 0.3559,0.966 0.748,2.027 1.1762,3.146" /><path
       inkscape:connector-curvature="0"
       id="path24"
       style="fill:none;stroke:#100f0d;stroke-width:2;stroke-linecap:butt;stroke-linejoin:miter;stroke-miterlimit:4;stroke-dasharray:none;stroke-opacity:1"
       d="m 139.401,171.845 c -0.39,1.005 -0.743,1.966 -1.061,2.847 -2.326,6.451 0.286,20.571 0.286,20.571 m -0.572,-60.857 c 0,0 -2.515,16.69 0.286,24.286 3.088,8.375 8.919,24.04 17.143,20.571 6.793,-2.865 4.755,-19.812 -2.286,-22 -3.65,-1.133 -6.72,1.437 -9.202,5.188" /><path
       inkscape:connector-curvature="0"
       id="path26"
       style="fill:none;stroke:#100f0d;stroke-width:2;stroke-linecap:butt;stroke-linejoin:miter;stroke-miterlimit:4;stroke-dasharray:none;stroke-opacity:1"
       d="M 87.4777,193.263 86.9063,136.692" /><path
       inkscape:connector-curvature="0"
       id="path28"
       style="fill:none;stroke:#100f0d;stroke-width:1.9073;stroke-linecap:butt;stroke-linejoin:miter;stroke-miterlimit:4;stroke-dasharray:none;stroke-opacity:1"
       d="m 248.066,196.329 c 0,0 32.238,-18.093 31.758,-32.914 -0.423,-13.043 -31.758,-28.801 -31.758,-28.801 m 25.885,47.182 c 9.697,7.827 23.03,13.927 23.03,13.927 m -26.82,-41.505 c -3.804,4.598 -6.408,9.434 -6.084,13.87 0.206,2.807 1.853,5.689 4.31,8.483 m 26.089,-42.518 c 0,0 -10.434,6.377 -19.082,14.613" /><path
       inkscape:connector-curvature="0"
       id="path30"
       style="fill:none;stroke:#100f0d;stroke-width:1.9073;stroke-linecap:butt;stroke-linejoin:miter;stroke-miterlimit:4;stroke-dasharray:none;stroke-opacity:1"
       d="m 444.933,151.049 c -9.315,-7.911 -21.801,-14.19 -21.801,-14.19 m 25.596,41.895 c 3.73,-4.297 6.3,-8.831 6.162,-13.095 -0.098,-3.023 -1.857,-6.191 -4.501,-9.276 m -27.257,42.19 c 0,0 11.13,-6.246 20.214,-14.406 m 26.196,-47.87 c 0,0 -31.481,19.242 -30.399,34.035 0.952,13.018 32.904,27.635 32.904,27.635" /><path
       inkscape:connector-curvature="0"
       id="path32"
       style="fill:none;stroke:#100f0d;stroke-width:1.9073;stroke-linecap:butt;stroke-linejoin:miter;stroke-miterlimit:4;stroke-dasharray:none;stroke-opacity:1"
       d="m 335.687,196.329 c 0,0 13.978,-18.093 13.498,-32.914 -0.423,-13.043 -13.498,-28.801 -13.498,-28.801" /><path
       inkscape:connector-curvature="0"
       id="path34"
       style="fill:none;stroke:#100f0d;stroke-width:1.9073;stroke-linecap:butt;stroke-linejoin:miter;stroke-miterlimit:4;stroke-dasharray:none;stroke-opacity:1"
       d="m 381.663,134.053 c 0,0 -11.632,16.624 -10.55,31.416 0.952,13.019 13.055,30.254 13.055,30.254" /><path
       inkscape:connector-curvature="0"
       id="path36"
       style="fill:none;stroke:#100f0d;stroke-width:2;stroke-linecap:butt;stroke-linejoin:miter;stroke-miterlimit:4;stroke-dasharray:none;stroke-opacity:1"
       d="M 9.14531,74.0859 56.4203,1.75898 M 29.9816,34.8969 8.33711,2.97109 M 56.8246,74.4898 34.8477,42.0738 m -21.045,17.575 C 6.60508,55.066 0.660156,49.8422 0.660156,49.8422 M 44.1523,62.927 c -4.9351,2.148 -9.9593,3.6769 -13.9957,3.482 -2.8183,-0.1371 -6.073,-1.2418 -9.3695,-2.8231 M 64.0977,51.4578 c 0,0 -5.5864,4.0231 -12.7012,7.8981" /><path
       inkscape:connector-curvature="0"
       id="path38"
       style="fill:none;stroke:#100f0d;stroke-width:2;stroke-linecap:butt;stroke-linejoin:miter;stroke-miterlimit:4;stroke-dasharray:none;stroke-opacity:1"
       d="M 135.093,74.8941 182.368,2.56719 M 155.929,35.7051 134.285,3.77891 M 182.772,75.298 160.795,42.882 m 13.407,-20.5121 c 8.316,4.9153 15.768,11.5332 15.768,11.5332 M 149.667,19.341 c 3.898,-1.432 7.708,-2.334 10.895,-2.1621 1.979,0.1063 4.171,0.6922 6.44,1.5852 m -40.46,13.1839 c 0,0 7.204,-5.1289 15.671,-9.3468" /><path
       inkscape:connector-curvature="0"
       id="path40"
       style="fill:none;stroke:#100f0d;stroke-width:2;stroke-linecap:butt;stroke-linejoin:miter;stroke-miterlimit:4;stroke-dasharray:none;stroke-opacity:1"
       d="M 296.397,57.15 333.394,0.546875 M 286.119,72.8738 292.011,63.8602 M 306.956,33.6852 285.311,1.75898 m 37.221,54.90192 -10.71,-15.7988 m 21.976,32.416 -6.734,-9.934 m 14.007,-13.098 c 0,0 -21.593,15.5488 -33.941,14.9508 -11.263,-0.5457 -29.496,-16.5668 -29.496,-16.5668" /><path
       inkscape:connector-curvature="0"
       id="path42"
       style="fill:none;stroke:#100f0d;stroke-width:2;stroke-linecap:butt;stroke-linejoin:miter;stroke-miterlimit:4;stroke-dasharray:none;stroke-opacity:1"
       d="M 446.056,15.0469 455.533,0.546875 M 408.258,72.8738 441.652,21.784 M 416.761,15.4922 407.45,1.75898 m 21.645,31.92622 -7.771,-11.4614 m 34.613,51.0543 -21.976,-32.416 m -34.254,-10.934 c 0,0 21.676,-15.434 34.021,-14.7691 11.26,0.6051 29.407,16.723 29.407,16.723" /><path
       inkscape:connector-curvature="0"
       id="path44"
       style="fill:none;stroke:#808080;stroke-width:1;stroke-linecap:butt;stroke-linejoin:miter;stroke-miterlimit:4;stroke-dasharray:none;stroke-opacity:1"
       d="M 98.2395,168.121 H 127.954" /><path
       inkscape:connector-curvature="0"
       id="path46"
       style="fill:#808080;fill-opacity:1;fill-rule:nonzero;stroke:none;stroke-width:0.1"
       d="m 93.8621,168.121 6.1689,-2.521 -1.4642,2.521 1.4642,2.52 -6.1689,-2.52" /><path
       inkscape:connector-curvature="0"
       id="path48"
       style="fill:#808080;fill-opacity:1;fill-rule:nonzero;stroke:none;stroke-width:0.1"
       d="m 132.331,168.121 -6.168,-2.521 1.464,2.521 -1.464,2.52 6.168,-2.52" /><path
       inkscape:connector-curvature="0"
       id="path50"
       style="fill:none;stroke:#808080;stroke-width:1;stroke-linecap:butt;stroke-linejoin:miter;stroke-miterlimit:4;stroke-dasharray:none;stroke-opacity:1"
       d="m 46.4301,168.121 h 29.714" /><path
       inkscape:connector-curvature="0"
       id="path52"
       style="fill:#808080;fill-opacity:1;fill-rule:nonzero;stroke:none;stroke-width:0.1"
       d="m 42.0523,168.121 6.1688,-2.521 -1.4637,2.521 1.4637,2.52 -6.1688,-2.52" /><path
       inkscape:connector-curvature="0"
       id="path54"
       style="fill:#808080;fill-opacity:1;fill-rule:nonzero;stroke:none;stroke-width:0.1"
       d="m 80.5219,168.121 -6.1688,-2.521 1.4641,2.521 -1.4641,2.52 6.1688,-2.52" /><path
       inkscape:connector-curvature="0"
       id="path56"
       style="fill:none;stroke:#808080;stroke-width:1;stroke-linecap:butt;stroke-linejoin:miter;stroke-miterlimit:4;stroke-dasharray:none;stroke-opacity:1"
       d="m 297.206,167.132 h 29.715" /><path
       inkscape:connector-curvature="0"
       id="path58"
       style="fill:#808080;fill-opacity:1;fill-rule:nonzero;stroke:none;stroke-width:0.1"
       d="m 292.829,167.132 6.168,-2.521 -1.463,2.521 1.463,2.52 -6.168,-2.52" /><path
       inkscape:connector-curvature="0"
       id="path60"
       style="fill:#808080;fill-opacity:1;fill-rule:nonzero;stroke:none;stroke-width:0.1"
       d="m 331.298,167.132 -6.168,-2.521 1.463,2.521 -1.463,2.52 6.168,-2.52" /><path
       inkscape:connector-curvature="0"
       id="path62"
       style="fill:none;stroke:#808080;stroke-width:1;stroke-linecap:butt;stroke-linejoin:miter;stroke-miterlimit:4;stroke-dasharray:none;stroke-opacity:1"
       d="m 391.079,166.678 h 29.714" /><path
       inkscape:connector-curvature="0"
       id="path64"
       style="fill:#808080;fill-opacity:1;fill-rule:nonzero;stroke:none;stroke-width:0.1"
       d="m 386.701,166.678 6.169,-2.521 -1.464,2.521 1.464,2.52 -6.169,-2.52" /><path
       inkscape:connector-curvature="0"
       id="path66"
       style="fill:#808080;fill-opacity:1;fill-rule:nonzero;stroke:none;stroke-width:0.1"
       d="m 425.171,166.678 -6.169,-2.521 1.464,2.521 -1.464,2.52 6.169,-2.52" /><path
       inkscape:connector-curvature="0"
       id="path68"
       style="fill:none;stroke:#808080;stroke-width:1;stroke-linecap:butt;stroke-linejoin:miter;stroke-miterlimit:4;stroke-dasharray:none;stroke-opacity:1"
       d="m 356.185,38.7309 h 29.714" /><path
       inkscape:connector-curvature="0"
       id="path70"
       style="fill:#808080;fill-opacity:1;fill-rule:nonzero;stroke:none;stroke-width:0.1"
       d="m 351.807,38.7309 6.169,-2.5207 -1.464,2.5207 1.464,2.5203 -6.169,-2.5203" /><path
       inkscape:connector-curvature="0"
       id="path72"
       style="fill:#808080;fill-opacity:1;fill-rule:nonzero;stroke:none;stroke-width:0.1"
       d="m 390.276,38.7309 -6.168,-2.5207 1.464,2.5207 -1.464,2.5203 6.168,-2.5203" /><path
       inkscape:connector-curvature="0"
       id="path74"
       style="fill:none;stroke:#808080;stroke-width:1;stroke-linecap:butt;stroke-linejoin:miter;stroke-miterlimit:4;stroke-dasharray:none;stroke-opacity:1"
       d="M 79.1992,40.8621 H 108.913" /><path
       inkscape:connector-curvature="0"
       id="path76"
       style="fill:#808080;fill-opacity:1;fill-rule:nonzero;stroke:none;stroke-width:0.1"
       d="m 74.8215,40.8621 6.1687,-2.5199 -1.4636,2.5199 1.4636,2.5199 -6.1687,-2.5199" /><path
       inkscape:connector-curvature="0"
       id="path78"
       style="fill:#808080;fill-opacity:1;fill-rule:nonzero;stroke:none;stroke-width:0.1"
       d="m 113.291,40.8621 -6.169,-2.5199 1.464,2.5199 -1.464,2.5199 6.169,-2.5199" /><g
       id="g80"><text
         id="text88"
         style="font-variant:normal;font-weight:normal;font-size:12px;font-family:Arial;-inkscape-font-specification:ArialMT;writing-mode:lr-tb;fill:#100f0d;fill-opacity:1;fill-rule:nonzero;stroke:none"
         transform="matrix(1,0,0,-1,230.406,37.923)"><tspan
           id="tspan82"
           sodipodi:role="line"
           y="0"
           x="0 6.673831">or</tspan><tspan
           id="tspan84"
           sodipodi:role="line"
           y="-170.007"
           x="-179.009 -170.345 -163.673 -161.009 -154.33701 -147.66499 -137.66901 -130.99699 -128.33299 -122.333 -118.997 -112.325 -108.329 -104.993 92.126198 100.7902 107.4622 110.1262 116.7982 123.4702 133.4662 140.1382 142.8022 148.8022 152.1382 158.8102 162.8062 166.1422 169.4782">Reidemeister IReidemeister II</tspan><tspan
           id="tspan86"
           sodipodi:role="line"
           y="-46.674"
           x="-31.009001 -22.344999 -15.673 -13.009 -6.3369999 0.33500001 10.331 17.003 19.667 25.667 29.003 35.674999 39.671001 43.007 46.342999 49.679001">Reidemeister III</tspan></text>
</g></g></svg>