<?xml version="1.0" encoding="UTF-8" standalone="no"?>
<!-- Created with Inkscape (http://www.inkscape.org/) -->

<svg
   xmlns:dc="http://purl.org/dc/elements/1.1/"
   xmlns:cc="http://creativecommons.org/ns#"
   xmlns:rdf="http://www.w3.org/1999/02/22-rdf-syntax-ns#"
   xmlns:svg="http://www.w3.org/2000/svg"
   xmlns="http://www.w3.org/2000/svg"
   xmlns:sodipodi="http://sodipodi.sourceforge.net/DTD/sodipodi-0.dtd"
   xmlns:inkscape="http://www.inkscape.org/namespaces/inkscape"
   version="1.1"
   id="svg2"
   xml:space="preserve"
   width="521.38263"
   height="761.17932"
   viewBox="0 0 521.38263 761.17932"
   sodipodi:docname="figure8.svg"
   inkscape:version="0.92.0 r"><metadata
     id="metadata8"><rdf:RDF><cc:Work
         rdf:about=""><dc:format>image/svg+xml</dc:format><dc:type
           rdf:resource="http://purl.org/dc/dcmitype/StillImage" /><dc:title /></cc:Work></rdf:RDF></metadata><defs
     id="defs6"><marker
       inkscape:isstock="true"
       style="overflow:visible"
       id="marker6084"
       refX="0"
       refY="0"
       orient="auto"
       inkscape:stockid="Arrow2Send"><path
         transform="matrix(-0.3,0,0,-0.3,0.69,0)"
         d="M 8.7185878,4.0337352 -2.2072895,0.01601326 8.7185884,-4.0017078 c -1.7454984,2.3720609 -1.7354408,5.6174519 -6e-7,8.035443 z"
         style="fill:#999999;fill-opacity:1;fill-rule:evenodd;stroke:#999999;stroke-width:0.625;stroke-linejoin:round;stroke-opacity:1"
         id="path6082"
         inkscape:connector-curvature="0" /></marker><marker
       inkscape:stockid="Arrow2Send"
       orient="auto"
       refY="0"
       refX="0"
       id="Arrow2Send"
       style="overflow:visible"
       inkscape:isstock="true"
       inkscape:collect="always"><path
         id="path5351"
         style="fill:#999999;fill-opacity:1;fill-rule:evenodd;stroke:#999999;stroke-width:0.625;stroke-linejoin:round;stroke-opacity:1"
         d="M 8.7185878,4.0337352 -2.2072895,0.01601326 8.7185884,-4.0017078 c -1.7454984,2.3720609 -1.7354408,5.6174519 -6e-7,8.035443 z"
         transform="matrix(-0.3,0,0,-0.3,0.69,0)"
         inkscape:connector-curvature="0" /></marker><inkscape:path-effect
       crossing_points_vector="159.69211 | 315.23034 | 0 | 0 | 0 | 3 | 0.64183435 | 4.3511381 | 1 | 259.44484 | 404.70612 | 0 | 0 | 1 | 4 | 1.5036474 | 6.6186172 | 1 | 288.87709 | 302.01849 | 0 | 0 | 2 | 5 | 3.3336521 | 7.4421266 | 1"
       switcher_size="10"
       add_other_stroke_width="false"
       add_stroke_width="true"
       prop_to_stroke_width="true"
       interruption_width="3"
       is_visible="true"
       id="path-effect5209"
       effect="knot" /><clipPath
       clipPathUnits="userSpaceOnUse"
       id="clipPath20"><path
         d="M 0,0 H 3895.37 V 5064.55 H 0 Z"
         id="path18"
         inkscape:connector-curvature="0" /></clipPath><clipPath
       clipPathUnits="userSpaceOnUse"
       id="clipPath70"><path
         d="m 1809.82,0 h 889.969 V 655.172 H 1809.82 Z"
         id="path68"
         inkscape:connector-curvature="0" /></clipPath><clipPath
       clipPathUnits="userSpaceOnUse"
       id="clipPath82"><path
         d="M 0,0 H 3895.37 V 5064.55 H 0 Z"
         id="path80"
         inkscape:connector-curvature="0" /></clipPath><inkscape:path-effect
       crossing_points_vector="139.94461 | -7.5355617 | 0 | 0 | 0 | 3 | 1.3905095 | 5.3408908 | 1 | 229.40853 | 43.843196 | 0 | 0 | 1 | 4 | 2.3645282 | 6.7150137 | 1 | 275.83969 | -13.983959 | 0 | 0 | 2 | 5 | 4.2689926 | 7.5569254 | 1"
       switcher_size="10"
       add_other_stroke_width="false"
       add_stroke_width="false"
       prop_to_stroke_width="true"
       interruption_width="3"
       is_visible="true"
       id="path-effect5189"
       effect="knot" /><inkscape:path-effect
       effect="knot"
       id="path-effect5193"
       is_visible="true"
       interruption_width="3"
       prop_to_stroke_width="true"
       add_stroke_width="true"
       add_other_stroke_width="false"
       switcher_size="10"
       crossing_points_vector="159.69211 | 315.23034 | 0 | 0 | 0 | 3 | 0.64183435 | 4.3511381 | 1 | 259.44484 | 404.70612 | 0 | 0 | 1 | 4 | 1.5036474 | 6.6186172 | 1 | 288.87709 | 302.01849 | 0 | 0 | 2 | 5 | 3.3336521 | 7.4421266 | 1" /></defs><sodipodi:namedview
     pagecolor="#ffffff"
     bordercolor="#666666"
     borderopacity="1"
     objecttolerance="10"
     gridtolerance="10"
     guidetolerance="10"
     inkscape:pageopacity="0"
     inkscape:pageshadow="2"
     inkscape:window-width="922"
     inkscape:window-height="843"
     id="namedview4"
     showgrid="false"
     fit-margin-left="1"
     fit-margin-top="1"
     fit-margin-right="1"
     fit-margin-bottom="1"
     inkscape:zoom="0.98743905"
     inkscape:cx="223.72171"
     inkscape:cy="233.9944"
     inkscape:window-x="0"
     inkscape:window-y="0"
     inkscape:window-maximized="0"
     inkscape:current-layer="g10" /><g
     id="g10"
     inkscape:groupmode="layer"
     inkscape:label="figure8"
     transform="matrix(1.3333333,0,0,-1.3333333,1.0000036,676.27332)"><path
       inkscape:connector-curvature="0"
       id="path24"
       style="fill:#231f20;fill-opacity:1;fill-rule:nonzero;stroke:none;stroke-width:0.1"
       d="m 387.507,306.422 h -2 c 0,-54.154 -21.361,-103.159 -55.889,-138.635 C 295.086,132.314 247.419,110.391 194.754,110.39 142.088,110.391 94.4215,132.314 59.8895,167.787 25.3617,203.263 4.00039,252.268 4,306.422 v 0 c 3.9e-4,54.155 21.3617,103.16 55.8895,138.635 34.532,35.474 82.1985,57.397 134.8645,57.398 v 0 c 52.665,-10e-4 100.332,-21.924 134.864,-57.398 34.528,-35.475 55.889,-84.48 55.889,-138.635 h 2 2 c 10e-4,55.216 -21.788,105.227 -57.023,141.426 -35.231,36.2 -83.941,58.609 -137.73,58.607 v 0 C 140.964,506.456 92.2539,484.048 57.023,447.848 21.7879,411.649 -7.8125e-4,361.638 0,306.422 v 0 c -7.8125e-4,-55.215 21.7879,-105.226 57.023,-141.425 35.2309,-36.2 83.941,-58.608 137.731,-58.607 53.789,-0.001 102.499,22.407 137.73,58.607 35.235,36.199 57.024,86.21 57.023,141.425 h -2" /><path
       inkscape:connector-curvature="0"
       id="path26"
       style="fill:#231f20;fill-opacity:1;fill-rule:nonzero;stroke:none;stroke-width:0.1"
       d="m 385.499,304.722 c -0.001,-4.731 -1.201,-9.354 -3.539,-13.893 -4.087,-7.937 -11.726,-15.589 -22.368,-22.526 -15.953,-10.414 -38.589,-19.201 -65.591,-25.345 -27.004,-6.149 -58.377,-9.673 -91.853,-9.672 v -4 c 51.442,0.004 97.98,8.231 131.831,21.637 16.927,6.71 30.693,14.709 40.334,23.741 4.818,4.518 8.606,9.302 11.202,14.332 2.594,5.026 3.986,10.309 3.984,15.726 h -4" /><path
       inkscape:connector-curvature="0"
       id="path28"
       style="fill:#231f20;fill-opacity:1;fill-rule:nonzero;stroke:none;stroke-width:0.1"
       d="m 0,304.722 c -0.00234375,-5.445 1.50977,-10.751 4.31523,-15.783 4.91836,-8.812 13.72537,-16.838 25.60587,-24.023 17.8293,-10.766 42.6551,-19.642 72.1489,-25.865 29.493,-6.218 63.648,-9.765 100.078,-9.765 v 4 c -55.113,-0.005 -104.9664,8.195 -140.8707,21.374 -17.9503,6.582 -32.4035,14.418 -42.25,22.973 -4.9257,4.276 -8.696,8.723 -11.21753,13.253 C 5.2875,295.419 4.00195,300.019 4,304.722 H 0 v 0" /><path
       inkscape:connector-curvature="0"
       id="path60"
       style="fill:#0000ff;fill-opacity:1;fill-rule:nonzero;stroke:none;stroke-width:0.1"
       d="m 200.129,134.266 c 0,-2.968 -2.407,-5.375 -5.375,-5.375 -2.969,0 -5.375,2.407 -5.375,5.375 0,2.969 2.406,5.375 5.375,5.375 2.968,0 5.375,-2.406 5.375,-5.375" /><path
       inkscape:connector-curvature="0"
       id="path62"
       style="fill:#0000ff;fill-opacity:1;fill-rule:nonzero;stroke:none;stroke-width:0.1"
       d="m 200.129,134.266 h -0.5 c -0.001,-1.348 -0.545,-2.563 -1.428,-3.447 -0.884,-0.883 -2.1,-1.428 -3.447,-1.428 -1.348,0 -2.564,0.545 -3.448,1.428 -0.883,0.884 -1.427,2.099 -1.427,3.447 0,1.348 0.544,2.564 1.427,3.447 0.884,0.883 2.1,1.428 3.448,1.428 1.347,0 2.563,-0.545 3.447,-1.428 0.883,-0.883 1.427,-2.099 1.428,-3.447 h 0.5 0.5 c -0.001,3.245 -2.631,5.875 -5.875,5.875 -3.245,0 -5.875,-2.63 -5.875,-5.875 0,-3.245 2.63,-5.874 5.875,-5.875 3.244,0.001 5.874,2.63 5.875,5.875 h -0.5" /><path
       inkscape:connector-curvature="0"
       id="path88"
       style="fill:#231f20;fill-opacity:1;fill-rule:nonzero;stroke:none;stroke-width:0.1"
       d="m 4.03789,297.09 -3.9e-4,0.029 c 3.9e-4,1.862 0.18711,3.705 0.55469,5.534 l -3.921487,0.789 C 0.251953,301.36 0.0375,299.249 0.0375,297.119 l 3.906e-4,-0.033 3.9999994,0.004" /><path
       inkscape:connector-curvature="0"
       id="path94"
       style="fill:#231f20;fill-opacity:1;fill-rule:nonzero;stroke:none;stroke-width:0.1"
       d="m 389.537,297.485 c -0.002,2.15 -0.239,4.28 -0.699,6.379 l -3.907,-0.857 c 0.4,-1.827 0.604,-3.667 0.606,-5.526 l 4,0.004" /><path
       inkscape:original-d="m 190.19244,-60.719812 c -21.12093,1.472928 -48.92816,6.273932 -55.69975,30.527154 -5.95036,21.3118638 19.52856,37.0191681 43.5958,51.381841 39.46241,23.55009 107.51839,46.21153 137.40205,11.29941 6.2565,-7.30927 0.3801,-21.62565 -6.77547,-28.0573529 C 273.5393,-27.18603 214.38423,-23.43375 168.03117,-14.03271 c -22.97752,4.6601628 -67.34828,13.1279548 -60.66156,35.599523 15.89337,53.41169 133.2167,36.348793 166.98804,-7.97845 11.90479,-15.6258732 -0.98487,-34.817533 -11.67466,-46.847994 -17.16303,-19.315551 -46.71404,-29.257779 -72.49055,-27.460181 z"
       inkscape:path-effect="#path-effect5189"
       sodipodi:nodetypes="assaaaasaa"
       inkscape:connector-curvature="0"
       id="path4591"
       d="m 271.61416,-21.663453 c -2.75172,-4.271977 -5.92824,-8.216635 -8.93117,-11.596178 -17.16303,-19.315551 -46.71404,-29.257779 -72.49055,-27.460181 -21.12093,1.472928 -48.92816,6.273932 -55.69975,30.527154 -5.95036,21.3118638 19.52856,37.0191681 43.5958,51.381841 12.04225,7.186485 26.74716,14.290218 42.21747,19.700407 m 18.97213,5.615089 c 29.5634,7.085185 59.12686,5.944455 76.21245,-14.016086 6.2565,-7.30927 0.3801,-21.62565 -6.77547,-28.0573529 C 273.5393,-27.18603 214.38423,-23.43375 168.03117,-14.03271 c -6.19181,1.255785 -13.93709,2.788063 -21.81815,4.796349 m -12.37925,3.6055026 c -16.65836,5.60272777 -30.39832,13.9764164 -26.46416,27.1976714 15.89337,53.41169 133.2167,36.348793 166.98804,-7.97845 4.92418,-6.4633378 5.60628,-13.5367468 3.95663,-20.4610983"
       style="fill:none;fill-rule:evenodd;stroke:#0000ff;stroke-width:3.99999976;stroke-linecap:butt;stroke-linejoin:miter;stroke-miterlimit:4;stroke-dasharray:none;stroke-opacity:1" /><path
       sodipodi:nodetypes="cssaaassc"
       inkscape:connector-curvature="0"
       id="path5207"
       d="m 119.43411,257.78574 c 0,0 43.28207,68.78447 79.80046,102.10798 32.11125,29.30193 86.68748,73.67847 121.43372,47.55501 29.33822,-22.05751 21.51722,-56.09975 6.37491,-76.88546 -27.78391,-38.13868 -93.00265,-46.73887 -137.86595,-32.11737 -29.43236,9.59237 -57.51954,39.52218 -60.66156,70.31838 -2.34701,23.00402 5.26188,49.51793 33.77144,60.59479 57.79052,22.45344 116.27242,-28.53013 129.45935,-76.97176 9.39208,-34.50141 -16.31238,-87.35158 -16.31238,-87.35158"
       style="fill:none;fill-rule:evenodd;stroke:#ffffff;stroke-width:6;stroke-linecap:butt;stroke-linejoin:miter;stroke-miterlimit:4;stroke-dasharray:none;stroke-opacity:1" /><path
       style="fill:none;fill-rule:evenodd;stroke:#0000ff;stroke-width:3.99999976;stroke-linecap:butt;stroke-linejoin:miter;stroke-miterlimit:4;stroke-dasharray:none;stroke-opacity:1"
       d="m 119.43411,257.78574 c 0,0 43.28207,68.78447 79.80046,102.10798 14.3845,13.12604 33.27696,29.27704 52.87549,40.7607 m 15.04971,7.73917 c 19.27108,8.41478 38.29148,10.49585 53.50852,-0.94486 29.33822,-22.05751 21.51722,-56.09975 6.37491,-76.88546 -27.78391,-38.13868 -93.00265,-46.73887 -137.86595,-32.11737 -7.97457,2.59901 -15.85038,6.69102 -23.15803,11.88874 m -12.26568,10.29569 c -13.58925,13.37413 -23.45034,30.61383 -25.23785,48.13395 -2.34701,23.00402 5.26188,49.51793 33.77144,60.59479 57.79052,22.45344 116.27242,-28.53013 129.45935,-76.97176 3.35714,-12.3323 2.23014,-27.00895 -0.60428,-40.77835 M 285.99968,292.1752 C 280.99572,276.47081 275.4341,265.03573 275.4341,265.03573"
       id="path4581"
       inkscape:connector-curvature="0"
       sodipodi:nodetypes="cssaaassc"
       inkscape:path-effect="#path-effect5193"
       inkscape:original-d="m 119.43411,257.78574 c 0,0 43.28207,68.78447 79.80046,102.10798 32.11125,29.30193 86.68748,73.67847 121.43372,47.55501 29.33822,-22.05751 21.51722,-56.09975 6.37491,-76.88546 -27.78391,-38.13868 -93.00265,-46.73887 -137.86595,-32.11737 -29.43236,9.59237 -57.51954,39.52218 -60.66156,70.31838 -2.34701,23.00402 5.26188,49.51793 33.77144,60.59479 57.79052,22.45344 116.27242,-28.53013 129.45935,-76.97176 9.39208,-34.50141 -16.31238,-87.35158 -16.31238,-87.35158" /><path
       inkscape:connector-curvature="0"
       id="path44"
       style="fill:#000000;fill-opacity:1;fill-rule:nonzero;stroke:none;stroke-width:0.1"
       d="m 130.818,259.286 c 0,-4.788 -3.882,-8.67 -8.67,-8.67 -4.788,0 -8.669,3.882 -8.669,8.67 0,4.788 3.881,8.669 8.669,8.669 4.788,0 8.67,-3.881 8.67,-8.669" /><path
       inkscape:connector-curvature="0"
       id="path56"
       style="fill:#000000;fill-opacity:1;fill-rule:nonzero;stroke:none;stroke-width:0.1"
       d="m 286.818,266.536 c 0,-4.788 -3.882,-8.67 -8.67,-8.67 -4.788,0 -8.669,3.882 -8.669,8.67 0,4.788 3.881,8.669 8.669,8.669 4.788,0 8.67,-3.881 8.67,-8.669" /><path
       inkscape:connector-curvature="0"
       id="path58"
       style="fill:#000000;fill-opacity:1;fill-rule:nonzero;stroke:none;stroke-width:0.1"
       d="m 286.818,266.536 h -2 c -10e-4,-1.848 -0.744,-3.503 -1.954,-4.716 -1.213,-1.21 -2.868,-1.953 -4.716,-1.954 -1.848,0.001 -3.502,0.744 -4.716,1.954 -1.21,1.213 -1.952,2.868 -1.953,4.716 0.001,1.848 0.743,3.502 1.953,4.716 1.214,1.21 2.868,1.952 4.716,1.953 1.848,-10e-4 3.503,-0.743 4.716,-1.953 1.21,-1.214 1.953,-2.868 1.954,-4.716 h 2 2 c -0.002,5.893 -4.776,10.668 -10.67,10.669 -5.893,-10e-4 -10.668,-4.776 -10.669,-10.669 0.001,-5.894 4.776,-10.668 10.669,-10.67 5.894,0.002 10.668,4.776 10.67,10.67 h -2" /><path
       sodipodi:nodetypes="cc"
       inkscape:connector-curvature="0"
       id="path6080"
       d="M 118.48833,322.80473 C 15.190811,277.2323 0.75954058,115.45017 79.75176,50.129671"
       style="fill:none;fill-rule:evenodd;stroke:#ffffff;stroke-width:9.00000023;stroke-linecap:butt;stroke-linejoin:miter;stroke-miterlimit:4;stroke-dasharray:none;stroke-opacity:1" /><path
       style="fill:none;fill-rule:evenodd;stroke:#999999;stroke-width:6;stroke-linecap:butt;stroke-linejoin:miter;stroke-miterlimit:4;stroke-dasharray:none;stroke-opacity:1;marker-end:url(#Arrow2Send)"
       d="M 118.48833,322.80473 C 15.190811,277.2323 0.75954058,115.45017 79.75176,50.129671"
       id="path5316"
       inkscape:connector-curvature="0"
       sodipodi:nodetypes="cc" /><path
       inkscape:connector-curvature="0"
       id="path4601"
       style="fill:none;stroke:#ffffff;stroke-width:5.25;stroke-linecap:butt;stroke-linejoin:miter;stroke-miterlimit:10;stroke-dasharray:none;stroke-opacity:1"
       d="M 278.11653,233.79097 V 91.100168"
       sodipodi:nodetypes="cc" /><path
       d="m 278.11653,233.79097 0,-142.690802"
       style="fill:none;stroke:#12100f;stroke-width:2.25;stroke-linecap:butt;stroke-linejoin:miter;stroke-miterlimit:10;stroke-dasharray:none;stroke-opacity:1"
       id="path72"
       inkscape:connector-curvature="0"
       sodipodi:nodetypes="cc" /><path
       d="m 278.11653,266.20797 v -25.083"
       style="fill:none;stroke:#12100f;stroke-width:2.25000006;stroke-linecap:butt;stroke-linejoin:miter;stroke-miterlimit:10;stroke-dasharray:none;stroke-opacity:1"
       id="path74"
       inkscape:connector-curvature="0" /><path
       d="m 122.11654,258.95797 v -17.834"
       style="fill:none;stroke:#12100f;stroke-width:2.25000006;stroke-linecap:butt;stroke-linejoin:miter;stroke-miterlimit:10;stroke-dasharray:none;stroke-opacity:1"
       id="path80-4"
       inkscape:connector-curvature="0" /><path
       inkscape:connector-curvature="0"
       id="path4603"
       style="fill:none;stroke:#ffffff;stroke-width:5.25;stroke-linecap:butt;stroke-linejoin:miter;stroke-miterlimit:10;stroke-dasharray:none;stroke-opacity:1"
       d="M 122.11654,233.79097 V 92.239479"
       sodipodi:nodetypes="cc" /><path
       d="m 122.11654,233.79097 0,-141.551491"
       style="fill:none;stroke:#12100f;stroke-width:2.25;stroke-linecap:butt;stroke-linejoin:miter;stroke-miterlimit:10;stroke-dasharray:none;stroke-opacity:1"
       id="path78"
       inkscape:connector-curvature="0"
       sodipodi:nodetypes="cc" /><path
       d="m 124.84386,92.407554 c 0,-1.82866 -1.48128,-3.30866 -3.30784,-3.30866 -1.82657,0 -3.30784,1.48 -3.30784,3.30866 0,1.82651 1.48127,3.30572 3.30784,3.30572 1.82656,0 3.30784,-1.47921 3.30784,-3.30572 z"
       style="fill:#000000;stroke:#000000;stroke-width:3.99999976;stroke-linecap:butt;stroke-linejoin:miter;stroke-miterlimit:10;stroke-dasharray:none;stroke-opacity:1"
       id="path96"
       inkscape:connector-curvature="0" /><path
       inkscape:connector-curvature="0"
       id="path5290"
       style="fill:#000000;stroke:#000000;stroke-width:3.99999976;stroke-linecap:butt;stroke-linejoin:miter;stroke-miterlimit:10;stroke-dasharray:none;stroke-opacity:1"
       d="m 280.92945,92.407554 c 0,-1.82866 -1.48128,-3.30866 -3.30784,-3.30866 -1.82657,0 -3.30784,1.48 -3.30784,3.30866 0,1.82651 1.48127,3.30572 3.30784,3.30572 1.82656,0 3.30784,-1.47921 3.30784,-3.30572 z" /><path
       sodipodi:nodetypes="cc"
       inkscape:connector-curvature="0"
       id="path5292"
       style="fill:none;stroke:#12100f;stroke-width:2.25;stroke-linecap:butt;stroke-linejoin:miter;stroke-miterlimit:10;stroke-dasharray:none;stroke-opacity:1"
       d="M 277.82236,92.516424 122.11654,92.239479" /><path
       d="M 195.21196,269.4476 V 159.2966"
       style="fill:none;stroke:#12100f;stroke-width:3;stroke-linecap:butt;stroke-linejoin:miter;stroke-miterlimit:10;stroke-dasharray:none;stroke-opacity:1"
       id="path60-5"
       inkscape:connector-curvature="0" /><path
       d="m 195.21196,150.0626 c -1.612,4.345 -4.362,9.736 -7.276,13.07801 l 7.276,-2.63201 7.275,2.63201 c -2.913,-3.34201 -5.664,-8.73301 -7.275,-13.07801"
       style="fill:#12100f;fill-opacity:1;fill-rule:nonzero;stroke:none;stroke-width:0.09999999"
       id="path62-5"
       inkscape:connector-curvature="0" /></g></svg>