<?xml version="1.0" encoding="UTF-8" standalone="no"?>
<!-- Created with Inkscape (http://www.inkscape.org/) -->

<svg
   xmlns:dc="http://purl.org/dc/elements/1.1/"
   xmlns:cc="http://creativecommons.org/ns#"
   xmlns:rdf="http://www.w3.org/1999/02/22-rdf-syntax-ns#"
   xmlns:svg="http://www.w3.org/2000/svg"
   xmlns="http://www.w3.org/2000/svg"
   xmlns:sodipodi="http://sodipodi.sourceforge.net/DTD/sodipodi-0.dtd"
   xmlns:inkscape="http://www.inkscape.org/namespaces/inkscape"
   version="1.1"
   id="svg2"
   xml:space="preserve"
   width="1494.6667"
   height="440"
   viewBox="0 0 1494.6667 440"
   sodipodi:docname="figure2.svg"
   inkscape:version="0.92.0 r"><metadata
     id="metadata8"><rdf:RDF><cc:Work
         rdf:about=""><dc:format>image/svg+xml</dc:format><dc:type
           rdf:resource="http://purl.org/dc/dcmitype/StillImage" /><dc:title></dc:title></cc:Work></rdf:RDF></metadata><defs
     id="defs6"><clipPath
       clipPathUnits="userSpaceOnUse"
       id="clipPath20"><path
         d="M 0,0 H 11209.2 V 3297.8 H 0 Z"
         id="path18"
         inkscape:connector-curvature="0" /></clipPath></defs><sodipodi:namedview
     pagecolor="#ffffff"
     bordercolor="#666666"
     borderopacity="1"
     objecttolerance="10"
     gridtolerance="10"
     guidetolerance="10"
     inkscape:pageopacity="0"
     inkscape:pageshadow="2"
     inkscape:window-width="1221"
     inkscape:window-height="716"
     id="namedview4"
     showgrid="false"
     inkscape:zoom="0.36427667"
     inkscape:cx="689.39323"
     inkscape:cy="422.20707"
     inkscape:window-x="0"
     inkscape:window-y="0"
     inkscape:window-maximized="0"
     inkscape:current-layer="g10" /><g
     id="g10"
     inkscape:groupmode="layer"
     inkscape:label="figure2"
     transform="matrix(1.3333333,0,0,-1.3333333,0,440)"><path
       inkscape:connector-curvature="0"
       id="path22"
       style="fill:none;stroke:#100f0d;stroke-width:5;stroke-linecap:butt;stroke-linejoin:miter;stroke-miterlimit:10;stroke-dasharray:none;stroke-opacity:1"
       d="m 14.6508,117.177 c 2.173,12.297 12.2797,37.496 15.5293,60.464 4.4469,31.433 3.9398,34.544 7.0582,49.408 4.4121,21.032 9.4234,43.858 25.2082,67.053 8.6285,12.68 15.382,22.604 28.7371,28.233 20.5344,8.655 41.2294,0.645 49.4074,-2.521 19.512,-7.553 30.828,-20.487 35.291,-25.712 22.293,-26.097 23.869,-56.5 24.704,-72.599 0.907,-17.5 2.098,-40.474 -12.604,-62.012 -7.51,-11.002 -16.559,-17.807 -22.687,-21.678" /><path
       inkscape:connector-curvature="0"
       id="path24"
       style="fill:none;stroke:#100f0d;stroke-width:5;stroke-linecap:butt;stroke-linejoin:miter;stroke-miterlimit:10;stroke-dasharray:none;stroke-opacity:1"
       d="m 150.674,129.746 c -2.762,-1.363 -8.86,-3.866 -16.133,-2.521 -9.538,1.764 -14.957,9.01 -17.645,12.604 -9.163,12.251 -9.365,27.079 -9.58,42.854 -0.081,6.023 0.233,10.949 0.505,14.116" /><path
       inkscape:connector-curvature="0"
       id="path26"
       style="fill:none;stroke:#100f0d;stroke-width:5;stroke-linecap:butt;stroke-linejoin:miter;stroke-miterlimit:10;stroke-dasharray:none;stroke-opacity:1"
       d="m 115.383,217.47 c 2.382,13.067 5.861,23.944 9.075,32.266 6.616,17.131 14.186,28.813 16.133,31.762 4.768,7.221 9.416,12.95 13.108,17.141" /><path
       inkscape:connector-curvature="0"
       id="path28"
       style="fill:none;stroke:#100f0d;stroke-width:5;stroke-linecap:butt;stroke-linejoin:miter;stroke-miterlimit:10;stroke-dasharray:none;stroke-opacity:1"
       d="m 176.386,312.756 c 5.162,3.44 13.156,7.992 23.696,11.091 16.265,4.783 29.623,3.466 38.316,2.521 8.915,-0.968 24.917,-2.876 42.349,-13.108 8.23,-4.83 21.486,-12.834 30.754,-29.241 2.7,-4.779 10.132,-18.35 9.075,-36.804 -0.498,-8.692 -2.718,-15.647 -4.537,-20.166" /><path
       inkscape:connector-curvature="0"
       id="path30"
       style="fill:none;stroke:#100f0d;stroke-width:5;stroke-linecap:butt;stroke-linejoin:miter;stroke-miterlimit:10;stroke-dasharray:none;stroke-opacity:1"
       d="m 306.964,216.461 c -3.452,-2.988 -9.188,-7.339 -17.142,-10.587 -6.22,-2.54 -14.333,-4.624 -42.349,-4.033 -7.538,0.159 -17.882,0.54 -30.25,1.512" /><path
       inkscape:connector-curvature="0"
       id="path32"
       style="fill:none;stroke:#100f0d;stroke-width:5;stroke-linecap:butt;stroke-linejoin:miter;stroke-miterlimit:10;stroke-dasharray:none;stroke-opacity:1"
       d="m 188.486,203.353 c -4.811,0.475 -13.064,0.592 -22.183,-3.025 -4.151,-1.646 -7.507,-3.68 -10.083,-5.545" /><path
       inkscape:connector-curvature="0"
       id="path34"
       style="fill:none;stroke:#100f0d;stroke-width:5;stroke-linecap:butt;stroke-linejoin:miter;stroke-miterlimit:10;stroke-dasharray:none;stroke-opacity:1"
       d="m 147.649,180.666 c -6.637,-10.734 -6.015,-19.38 -5.545,-22.687 1.706,-12.029 10.788,-19.715 19.662,-27.225 7.917,-6.701 12.088,-8.146 20.67,-13.612 22.277,-14.188 23.733,-23.2701 43.358,-37.308 7.019,-5.0199 18.096,-11.9149 33.779,-17.6449" /><path
       inkscape:connector-curvature="0"
       id="path36"
       style="fill:none;stroke:#100f0d;stroke-width:5;stroke-linecap:butt;stroke-linejoin:miter;stroke-miterlimit:10;stroke-dasharray:none;stroke-opacity:1"
       d="m 287.302,51.6012 c 3.585,-1.1762 17.97,-5.4481 31.257,2.0168 11.003,6.1812 15.033,16.914 17.646,24.1992 3.014,8.4008 5.1,19.3168 -3.025,67.0538 -4.22,24.791 -6.415,37.391 -10.587,47.391 -7.36,17.638 -12.082,18.187 -18.15,36.803 -6.614,20.29 -5.772,34.263 -4.538,42.35 0.71,4.648 1.718,8.45 2.521,11.091" /><path
       inkscape:connector-curvature="0"
       id="path38"
       style="fill:none;stroke:#100f0d;stroke-width:5;stroke-linecap:butt;stroke-linejoin:miter;stroke-miterlimit:10;stroke-dasharray:none;stroke-opacity:1"
       d="m 315.03,292.086 c 4.09,1.805 14.824,5.864 27.225,2.52 18.557,-5.004 26.24,-22.647 28.233,-27.224 7.172,-16.47 3.668,-31.783 -0.504,-48.904 -3.397,-13.937 -10.835,-36.317 -28.737,-60.499" /><path
       inkscape:connector-curvature="0"
       id="path40"
       style="fill:none;stroke:#100f0d;stroke-width:5;stroke-linecap:butt;stroke-linejoin:miter;stroke-miterlimit:10;stroke-dasharray:none;stroke-opacity:1"
       d="M 327.13,132.267 C 309.921,108.536 296.972,88.8852 288.31,75.2969 274.239,53.225 267.191,40.427 250.498,27.402 237.89,17.5629 226.045,12.484 220.248,10.2602 198.043,1.74102 178.97,2.27383 167.816,2.69805 159.606,3.00898 148.602,3.50313 135.045,7.73906 124.423,11.0582 118.149,14.827 100.258,25.3852 92.5059,29.9602 78.6832,38.1039 59.9254,49.0801" /><path
       inkscape:connector-curvature="0"
       id="path42"
       style="fill:none;stroke:#100f0d;stroke-width:5;stroke-linecap:butt;stroke-linejoin:miter;stroke-miterlimit:10;stroke-dasharray:none;stroke-opacity:1"
       d="M 47.3215,60.6762 C 40.4391,66.1781 31.1191,74.8449 22.6176,87.3969 10.6355,105.087 6.52422,121.274 5.47617,125.713 c -6.72695,28.494 -0.18554,51.437 1.5125,56.97 4.69453,15.294 10.98553,30.238 22.50233,33.274" /><path
       inkscape:connector-curvature="0"
       id="path44"
       style="fill:none;stroke:#100f0d;stroke-width:5;stroke-linecap:butt;stroke-linejoin:miter;stroke-miterlimit:10;stroke-dasharray:none;stroke-opacity:1"
       d="m 48.834,217.47 c 14.2281,-0.3 26.0797,-1.68 34.7871,-3.025 18.2969,-2.827 30.0889,-6.639 43.8619,-11.092 15.198,-4.913 19.973,-7.57 24.2,-12.1 1.351,-1.448 12.23,-13.105 8.066,-23.695 -1.473,-3.747 -4.352,-6.146 -6.554,-7.562" /><path
       inkscape:connector-curvature="0"
       id="path46"
       style="fill:none;stroke:#100f0d;stroke-width:5;stroke-linecap:butt;stroke-linejoin:miter;stroke-miterlimit:10;stroke-dasharray:none;stroke-opacity:1"
       d="m 137.566,146.383 c -3.025,-2.353 -6.05,-4.705 -9.075,-7.058" /><path
       inkscape:connector-curvature="0"
       id="path48"
       style="fill:none;stroke:#100f0d;stroke-width:5;stroke-linecap:butt;stroke-linejoin:miter;stroke-miterlimit:10;stroke-dasharray:none;stroke-opacity:1"
       d="M 118.912,126.217 C 98.8461,105.701 85.4434,89.452 76.5629,77.8172 76.2797,77.4461 67.2594,65.6281 52.3633,53.618 42.5785,45.7289 36.3379,42.659 29.1719,42.0219 25.9738,41.7379 17.8086,41.0129 11.5262,46.0551 4.63711,51.5852 4.10117,60.7691 3.45938,71.768 3.08789,78.1371 3.26289,87.843 6.48438,99.4961" /><path
       inkscape:connector-curvature="0"
       id="path50"
       style="fill:none;stroke:#808080;stroke-width:5;stroke-linecap:butt;stroke-linejoin:miter;stroke-miterlimit:10;stroke-dasharray:none;stroke-opacity:1"
       d="M 505.237,164.89 H 655.121" /><path
       inkscape:connector-curvature="0"
       id="path52"
       style="fill:#808080;fill-opacity:1;fill-rule:nonzero;stroke:none;stroke-width:0.1"
       d="M 469.934,164.89 519.68,144.563 507.876,164.89 519.68,185.212 469.934,164.89" /><path
       inkscape:connector-curvature="0"
       id="path54"
       style="fill:#808080;fill-opacity:1;fill-rule:nonzero;stroke:none;stroke-width:0.1"
       d="m 690.423,164.89 -49.746,-20.327 11.804,20.327 -11.804,20.322 49.746,-20.322" /><path
       inkscape:connector-curvature="0"
       id="path56"
       style="fill:none;stroke:#100f0d;stroke-width:5;stroke-linecap:butt;stroke-linejoin:miter;stroke-miterlimit:10;stroke-dasharray:none;stroke-opacity:1"
       d="m 1118.42,164.89 c 0,-80.9752 -65.65,-146.6181 -146.621,-146.6181 -80.974,0 -146.617,65.6429 -146.617,146.6181 0,80.974 65.643,146.617 146.617,146.617 80.971,0 146.621,-65.643 146.621,-146.617 z" /></g></svg>