<?xml version="1.0" encoding="UTF-8" standalone="no"?>
<svg
   xmlns:dc="http://purl.org/dc/elements/1.1/"
   xmlns:cc="http://creativecommons.org/ns#"
   xmlns:rdf="http://www.w3.org/1999/02/22-rdf-syntax-ns#"
   xmlns:svg="http://www.w3.org/2000/svg"
   xmlns="http://www.w3.org/2000/svg"
   xmlns:sodipodi="http://sodipodi.sourceforge.net/DTD/sodipodi-0.dtd"
   xmlns:inkscape="http://www.inkscape.org/namespaces/inkscape"
   id="Layer_1"
   data-name="Layer 1"
   viewBox="0 0 460.67 267.08"
   version="1.1"
   sodipodi:docname="gc_example4.svg"
   inkscape:version="0.92.2 5c3e80d, 2017-08-06">
  <metadata
     id="metadata155">
    <rdf:RDF>
      <cc:Work
         rdf:about="">
        <dc:format>image/svg+xml</dc:format>
        <dc:type
           rdf:resource="http://purl.org/dc/dcmitype/StillImage" />
        <dc:title>gauss code example</dc:title>
      </cc:Work>
    </rdf:RDF>
  </metadata>
  <sodipodi:namedview
     pagecolor="#ffffff"
     bordercolor="#666666"
     borderopacity="1"
     objecttolerance="10"
     gridtolerance="10"
     guidetolerance="10"
     inkscape:pageopacity="0"
     inkscape:pageshadow="2"
     inkscape:window-width="1917"
     inkscape:window-height="1151"
     id="namedview153"
     showgrid="false"
     inkscape:zoom="2.4959963"
     inkscape:cx="199.88796"
     inkscape:cy="152.59035"
     inkscape:window-x="12"
     inkscape:window-y="0"
     inkscape:window-maximized="0"
     inkscape:current-layer="Layer_1" />
  <defs
     id="defs4">
    <style
       id="style2">.cls-1{fill:#f7a7a9;}.cls-2{fill:#fff;}.cls-3,.cls-5{fill:none;stroke:#231f20;stroke-miterlimit:10;}.cls-3{stroke-width:3px;}.cls-4{font-size:13px;}.cls-10,.cls-4,.cls-6,.cls-9{fill:#231f20;}.cls-10,.cls-4,.cls-7,.cls-8,.cls-9{font-family:Arial;}.cls-7{font-size:11px;}.cls-7,.cls-8{fill:#ed1c24;}.cls-8,.cls-9{font-size:14px;}.cls-10{font-size:16px;}</style>
  </defs>
  <title
     id="title6">gauss code example</title>
  <path
     style="fill:#ffa9a9;fill-opacity:1"
     d="M 0 0 L 0 267.08008 L 460.66992 267.08008 L 460.66992 0 L 0 0 z M 312.08594 34.5 C 331.21605 34.537682 348.98102 38.89 362.7207 49.570312 C 374.5907 58.750312 383.99922 73.170078 388.69922 89.330078 C 389.26922 91.330078 389.77922 93.330078 390.19922 95.330078 C 387.06047 95.517578 383.55545 95.938542 379.57031 96.599609 C 383.55655 95.941865 387.06047 95.527734 390.19922 95.349609 C 390.36663 96.1415 390.5132 96.936459 390.65625 97.730469 C 390.51614 96.920618 390.37291 96.110632 390.21094 95.300781 C 391.45594 95.238281 392.64213 95.211309 393.7793 95.220703 C 401.73947 95.286465 407.23445 97.106322 412.7207 100.58008 C 441.9807 119.07008 452.37016 172.4307 434.66016 207.2207 C 404.00016 267.4707 296.00078 258.24992 254.05078 254.66992 C 224.67078 252.15992 107.65078 242.16953 81.050781 172.51953 A 97.12 97.12 0 0 1 76 151.19922 C 75.74 149.10922 75.539687 146.93969 75.429688 144.67969 C 85.610967 146.95246 95.402625 148.70295 104.71289 150 C 95.412301 148.70238 85.630761 146.9499 75.460938 144.67969 C 75.360938 142.80969 75.309844 140.88016 75.339844 138.91016 C 75.499844 127.34016 78.109453 114.46086 86.189453 103.13086 A 56.61 56.61 0 0 1 104.41016 86.880859 A 70.11 70.11 0 0 1 111.51953 83.349609 C 119.34953 94.559609 128.24922 103.72945 136.69922 105.68945 C 153.20922 109.50945 166.07906 96.849453 185.78906 81.689453 C 188.37906 82.579453 190.87953 83.550312 193.26953 84.570312 C 205.44953 89.750312 215.00016 96.309852 221.91016 101.08984 A 147.3 147.3 0 0 1 230.40625 107.5918 A 147.3 147.3 0 0 0 221.91016 101.05078 C 215.00016 96.310782 205.44953 89.750781 193.26953 84.550781 C 190.87953 83.550781 188.37906 82.549922 185.78906 81.669922 A 243.21 243.21 0 0 1 206.08984 67.429688 C 234.06578 50.078437 275.56482 34.428062 312.08594 34.5 z M 350.25781 103.20898 C 335.15975 107.10835 316.19558 112.42024 291.30078 119.41992 L 253.16992 130.14062 C 252.33479 129.09103 251.46795 128.03567 250.57422 126.97656 C 251.47822 128.04749 252.34522 129.11512 253.16992 130.17969 C 253.16125 130.18212 253.15516 130.18312 253.14648 130.18555 C 254.82454 132.30331 256.39419 134.39639 257.85938 136.46094 C 274.24937 159.39094 279.16 178.75 301.5 184.75 C 279.16 178.68 274.25063 159.36945 257.89062 136.43945 C 256.41729 134.37279 254.84326 132.28016 253.16992 130.16016 L 291.30078 119.43945 C 316.19114 112.43847 335.15634 107.11513 350.25781 103.20898 z M 235.05664 111.39844 A 147.3 147.3 0 0 1 241.36719 117.31836 A 147.3 147.3 0 0 0 235.05664 111.39844 z M 247.06836 123.02734 A 147.3 147.3 0 0 1 247.66016 123.66016 C 248.64965 124.742 249.59834 125.81933 250.50781 126.89453 C 249.58948 125.80786 248.64016 124.71581 247.66016 123.61914 A 147.3 147.3 0 0 0 247.06836 123.02734 z "
     id="rect8" />
  <path
     class="cls-2"
     d="M185.79,81.91h0c-19.71,15.18-32.58,27.84-49.09,24-8.45-2-17.35-11.13-25.18-22.34,2.34-1,4.7-1.86,7-2.61,15.66-5,30.74-4.73,36-4.65a99.47,99.47,0,0,1,23.77,3.31C180.9,80.33,183.39,81.09,185.79,81.91Z"
     id="path18"
     transform="translate(0 -0.25)" />
  <path
     class="cls-3"
     d="m 76,151.45 c 0.876995,7.27479 2.574463,14.42697 5.06,21.32 26.56,69.65 143.58,79.64 173,82.15 41.94,3.58 149.94,12.8 180.6,-47.45 17.71,-34.79 7.32,-88.15 -21.94,-106.64 -6.27,-4 -12.55,-5.78 -22.52,-5.21 -16.74,1 -43.88,8.62 -98.9,24.09 l -31.41886,8.74427 m -14.70308,4.21225 C 187.1454,148.89165 180.10544,150.49006 169.36,151.85 c -22.34,2.85 -55.33,1.69 -93.9,-6.92 -22.761044,-5.11377 -45.050086,-12.13868 -66.63,-21"
     transform="translate(0,-0.25)"
     id="path20"
     inkscape:connector-curvature="0"
     style="fill:none;stroke:#231f20;stroke-width:3px;stroke-miterlimit:10"
     sodipodi:nodetypes="cccccccccccc" />
  <path
     class="cls-3"
     d="M104.41,87.13a56.61,56.61,0,0,0-18.22,16.25c-8.08,11.33-10.69,24.21-10.85,35.78"
     transform="translate(0 -0.25)"
     id="path22" />
  <path
     class="cls-3"
     d="M178.33,79.65a99.47,99.47,0,0,0-23.77-3.31c-5.25-.08-20.33-0.34-36,4.65"
     transform="translate(0 -0.25)"
     id="path24" />
  <path
     id="path28"
     transform="translate(0,-0.25)"
     d="m 391.23,101.58 c 1.73495,12.14514 0.35864,24.53193 -4,36 -13.8,35.42 -56.16,55.47 -85.73,47.42 -22.34,-6.07 -27.25,-25.38 -43.61,-48.31 -3.41,-4.26 -6.82,-8.52 -10.23,-12.78 -7.67674,-8.49878 -16.31844,-16.07328 -25.75,-22.57 C 215,96.56 205.45,90 193.27,84.8"
     style="fill:none;stroke:#000000;stroke-width:3;stroke-miterlimit:4;stroke-dasharray:none"
     inkscape:connector-curvature="0"
     sodipodi:nodetypes="ccccccc" />
  <path
     class="cls-3"
     d="M89.87,41.5c3.4,10.21,11.66,27.81,21.65,42.1,7.83,11.21,16.73,20.38,25.18,22.34,16.51,3.82,29.38-8.84,49.09-24h0a243.21,243.21,0,0,1,20.3-14.24c42.63-26.44,116.66-48.93,156.63-17.86C374.59,59,384,73.42,388.7,89.58"
     transform="translate(0 -0.25)"
     id="path30" />
  <text
     class="cls-4"
     id="text32"
     style="font-size:13px;font-family:Arial;fill:#0000ff"
     x="87.500244"
     y="164.79913">1</text>
  <text
     class="cls-4"
     id="text34"
     style="font-size:13px;font-family:Arial;fill:#0000ff"
     x="235.28815"
     y="151.43233"
     inkscape:transform-center-x="6.4635286"
     inkscape:transform-center-y="-10.224721">2</text>
  <text
     class="cls-4"
     id="text36"
     style="font-size:13px;font-family:Arial;fill:#0000ff"
     x="366.11627"
     y="115.74688">3</text>
  <text
     class="cls-4"
     id="text38"
     style="font-size:13px;font-family:Arial;fill:#0000ff"
     x="102.35869"
     y="104.77865">4</text>
  <text
     class="cls-4"
     id="text40"
     style="font-size:13px;font-family:Arial;fill:#0000ff"
     x="182.89919"
     y="101.80979">5</text>
  <text
     class="cls-7"
     transform="translate(46.05 133.91)"
     id="text72"
     style="fill:#b90000;fill-opacity:1;">0</text>
  <text
     class="cls-7"
     id="text74"
     style="font-size:11px;font-family:Arial;fill:#000000"
     x="161.26833"
     y="162.87144">1</text>
  <text
     class="cls-7"
     transform="translate(316.52 106.38)"
     id="text76"
     style="fill:#000000;">2</text>
  <text
     class="cls-7"
     transform="translate(278.18 252)"
     id="text78"
     style="fill:#b90000;fill-opacity:1;">3</text>
  <text
     class="cls-7"
     transform="translate(85.08 118.15)"
     id="text80"
     style="fill:#b90000;fill-opacity:1;">4</text>
  <text
     class="cls-7"
     transform="translate(144.19 72.3)"
     id="text82"
     style="fill:#b90000;fill-opacity:1;">5</text>
  <text
     class="cls-7"
     transform="translate(233.19 104.11)"
     id="text84"
     style="fill:#000000;">6</text>
  <text
     class="cls-7"
     transform="translate(331.69 179.87)"
     id="text86"
     style="fill:#000000;">7</text>
  <text
     class="cls-7"
     transform="translate(303.64 30.95)"
     id="text88"
     style="fill:#b90000;fill-opacity:1;">8</text>
  <text
     class="cls-7"
     transform="translate(141.52 101.33)"
     id="text90"
     style="fill:#b90000;fill-opacity:1;">9</text>
  <text
     class="cls-7"
     id="text92"
     style="font-size:11px;font-family:Arial;fill:#b90000;fill-opacity:1"
     x="98.194366"
     y="53.360001">10</text>
  <text
     class="cls-8"
     transform="translate(360 25.75)"
     id="text94"
     style="fill:#b90000;fill-opacity:1;">outside region</text>
  <text
     class="cls-8"
     transform="translate(148.45 213.75)"
     id="text96"
     style="fill:#000000;">inside region</text>
  <polygon
     class="cls-6"
     points="91.46 147.4 81.07 150.16 83.94 146.43 82.12 142.09 91.46 147.4"
     id="polygon100" />
  <polygon
     class="cls-6"
     points="76.59 125.96 79.28 136.36 75.57 133.48 71.22 135.27 76.59 125.96"
     id="polygon104" />
  <polygon
     class="cls-6"
     points="272.61 124.76 264.11 131.33 265.3 126.78 261.94 123.5 272.61 124.76"
     id="polygon108" />
  <polygon
     class="cls-6"
     points="241.58,122.87 237.05,113.13 247.11,116.91 242.61,118.29 "
     id="polygon112"
     transform="rotate(-166.96453,254.25236,129.99921)"
     style="fill:#231f20" />
  <polygon
     class="cls-6"
     points="409.32 98.66 398.61 99.49 402.1 96.34 401.09 91.75 409.32 98.66"
     id="polygon116" />
  <polygon
     class="cls-6"
     points="383 74.7 390.63 82.27 385.96 81.69 383.14 85.45 383 74.7"
     id="polygon120" />
  <polygon
     class="cls-6"
     points="169.81 94.24 175.18 84.93 175.81 89.59 180.16 91.36 169.81 94.24"
     id="polygon124" />
  <polygon
     class="cls-6"
     points="208.44 92.31 197.85 90.48 202.01 88.29 202.16 83.59 208.44 92.31"
     id="polygon128" />
  <polygon
     class="cls-6"
     points="102.47 68.37 110.72 75.25 106.02 75.07 103.54 79.06 102.47 68.37"
     id="polygon132" />
  <polygon
     class="cls-6"
     points="138.84 76.76 129.57 82.19 131.33 77.83 128.42 74.14 138.84 76.76"
     id="polygon136" />
  <text
     class="cls-9"
     id="text138"
     style="font-size:14px;font-family:Arial;fill:#0000ff"
     x="99.301369"
     y="166.70343">
    <tspan
       style="font-size:18.66666603px"
       id="tspan5266">+</tspan>
  </text>
  <text
     class="cls-9"
     id="text140"
     style="font-size:14px;font-family:Arial;fill:#0000ff"
     x="247.74492"
     y="153.58388"
     inkscape:transform-center-x="-7.3415045"
     inkscape:transform-center-y="-10.224726">
    <tspan
       style="font-size:18.66666603px"
       id="tspan5268">+</tspan>
  </text>
  <text
     class="cls-9"
     id="text142"
     style="font-size:14px;font-family:Arial;fill:#0000ff"
     x="379.08405"
     y="117.7337">
    <tspan
       style="font-size:18.66666603px"
       id="tspan5270">+</tspan>
  </text>
  <text
     class="cls-10"
     id="text144"
     style="font-size:16px;font-family:Arial;fill:#0000ff"
     x="114.94621"
     y="104.96111">
    <tspan
       style="font-size:18.66666603px"
       id="tspan5262">-</tspan>
  </text>
  <text
     class="cls-9"
     id="text146"
     style="font-size:14px;font-family:Arial;fill:#0000ff"
     x="195.52756"
     y="103.87595">
    <tspan
       style="font-size:18.66666603px"
       id="tspan5264">+</tspan>
  </text>
  <circle
     class="cls-6"
     cx="8.83"
     cy="123.66"
     r="2.58"
     id="circle148" />
  <circle
     class="cls-6"
     cx="89.87"
     cy="41.46"
     r="2.58"
     id="circle150" />
  <circle
     style="color:#000000;clip-rule:nonzero;display:inline;overflow:visible;visibility:visible;opacity:1;isolation:auto;mix-blend-mode:normal;color-interpolation:sRGB;color-interpolation-filters:linearRGB;solid-color:#000000;solid-opacity:1;fill:none;fill-opacity:1;fill-rule:nonzero;stroke:#0000ff;stroke-width:1.00199997;stroke-linecap:round;stroke-linejoin:miter;stroke-miterlimit:4;stroke-dasharray:none;stroke-dashoffset:0;stroke-opacity:1;color-rendering:auto;image-rendering:auto;shape-rendering:auto;text-rendering:auto;enable-background:accumulate"
     id="path5252"
     cx="105.74199"
     cy="100.12582"
     r="7.4414673" />
  <circle
     r="7.4414673"
     cy="97.299782"
     cx="186.5237"
     id="circle5254"
     style="color:#000000;clip-rule:nonzero;display:inline;overflow:visible;visibility:visible;opacity:1;isolation:auto;mix-blend-mode:normal;color-interpolation:sRGB;color-interpolation-filters:linearRGB;solid-color:#000000;solid-opacity:1;fill:none;fill-opacity:1;fill-rule:nonzero;stroke:#0000ff;stroke-width:1.00199997;stroke-linecap:round;stroke-linejoin:miter;stroke-miterlimit:4;stroke-dasharray:none;stroke-dashoffset:0;stroke-opacity:1;color-rendering:auto;image-rendering:auto;shape-rendering:auto;text-rendering:auto;enable-background:accumulate" />
  <circle
     style="color:#000000;clip-rule:nonzero;display:inline;overflow:visible;visibility:visible;opacity:1;isolation:auto;mix-blend-mode:normal;color-interpolation:sRGB;color-interpolation-filters:linearRGB;solid-color:#000000;solid-opacity:1;fill:none;fill-opacity:1;fill-rule:nonzero;stroke:#0000ff;stroke-width:1.00199997;stroke-linecap:round;stroke-linejoin:miter;stroke-miterlimit:4;stroke-dasharray:none;stroke-dashoffset:0;stroke-opacity:1;color-rendering:auto;image-rendering:auto;shape-rendering:auto;text-rendering:auto;enable-background:accumulate"
     id="circle5256"
     cx="238.75662"
     cy="146.76045"
     r="7.4414673"
     inkscape:transform-center-x="6.4635396"
     inkscape:transform-center-y="-10.224721" />
  <circle
     r="7.4414673"
     cy="160.12726"
     cx="90.629639"
     id="circle5258"
     style="color:#000000;clip-rule:nonzero;display:inline;overflow:visible;visibility:visible;opacity:1;isolation:auto;mix-blend-mode:normal;color-interpolation:sRGB;color-interpolation-filters:linearRGB;solid-color:#000000;solid-opacity:1;fill:none;fill-opacity:1;fill-rule:nonzero;stroke:#0000ff;stroke-width:1.00199997;stroke-linecap:round;stroke-linejoin:miter;stroke-miterlimit:4;stroke-dasharray:none;stroke-dashoffset:0;stroke-opacity:1;color-rendering:auto;image-rendering:auto;shape-rendering:auto;text-rendering:auto;enable-background:accumulate" />
  <circle
     r="7.4414673"
     cy="111.15753"
     cx="369.70905"
     id="circle5260"
     style="color:#000000;clip-rule:nonzero;display:inline;overflow:visible;visibility:visible;opacity:1;isolation:auto;mix-blend-mode:normal;color-interpolation:sRGB;color-interpolation-filters:linearRGB;solid-color:#000000;solid-opacity:1;fill:none;fill-opacity:1;fill-rule:nonzero;stroke:#0000ff;stroke-width:1.00199997;stroke-linecap:round;stroke-linejoin:miter;stroke-miterlimit:4;stroke-dasharray:none;stroke-dashoffset:0;stroke-opacity:1;color-rendering:auto;image-rendering:auto;shape-rendering:auto;text-rendering:auto;enable-background:accumulate" />
</svg>
