<?xml version="1.0" encoding="UTF-8" standalone="no"?>
<!-- Created with Inkscape (http://www.inkscape.org/) -->

<svg
   xmlns:dc="http://purl.org/dc/elements/1.1/"
   xmlns:cc="http://creativecommons.org/ns#"
   xmlns:rdf="http://www.w3.org/1999/02/22-rdf-syntax-ns#"
   xmlns:svg="http://www.w3.org/2000/svg"
   xmlns="http://www.w3.org/2000/svg"
   xmlns:sodipodi="http://sodipodi.sourceforge.net/DTD/sodipodi-0.dtd"
   xmlns:inkscape="http://www.inkscape.org/namespaces/inkscape"
   version="1.1"
   id="svg2"
   xml:space="preserve"
   width="8.4416733cm"
   height="7.1494689cm"
   viewBox="0 0 319.05537 270.21615"
   sodipodi:docname="involutions.svg"
   inkscape:version="0.92.4 (5da689c313, 2019-01-14)"><metadata
     id="metadata8"><rdf:RDF><cc:Work
         rdf:about=""><dc:format>image/svg+xml</dc:format><dc:type
           rdf:resource="http://purl.org/dc/dcmitype/StillImage" /><dc:title></dc:title></cc:Work></rdf:RDF></metadata><defs
     id="defs6"><clipPath
       clipPathUnits="userSpaceOnUse"
       id="clipPath20"><path
         d="M 0,0 H 4724.44 V 2182.28 H 0 Z"
         id="path18"
         inkscape:connector-curvature="0" /></clipPath><clipPath
       id="clipPath885"
       clipPathUnits="userSpaceOnUse"><path
         inkscape:connector-curvature="0"
         id="path883"
         d="M 0,0 H 10602.4 V 2305.41 H 0 Z" /></clipPath></defs><sodipodi:namedview
     pagecolor="#ffffff"
     bordercolor="#666666"
     borderopacity="1"
     objecttolerance="10"
     gridtolerance="10"
     guidetolerance="10"
     inkscape:pageopacity="0"
     inkscape:pageshadow="2"
     inkscape:window-width="1820"
     inkscape:window-height="1060"
     id="namedview4"
     showgrid="false"
     inkscape:zoom="1.7096167"
     inkscape:cx="87.510995"
     inkscape:cy="89.368991"
     inkscape:window-x="0"
     inkscape:window-y="0"
     inkscape:window-maximized="0"
     inkscape:current-layer="g10"
     showguides="true"
     inkscape:guide-bbox="true"
     fit-margin-top="0.1"
     fit-margin-bottom="0.1"
     fit-margin-right="0.1"
     fit-margin-left="0.1"
     units="cm"><sodipodi:guide
       position="185.60046,288.01803"
       orientation="1,0"
       id="guide1127"
       inkscape:locked="false" /></sodipodi:namedview><g
     id="g10"
     inkscape:groupmode="layer"
     inkscape:label="figure3"
     transform="matrix(1.3333333,0,0,-1.3333333,0.76370896,289.86944)"><path
       d="m 9.5262002,144.23782 c -0.689,-1.91999 -2.8049,-2.91755 -4.72432,-2.22816 -1.91985,0.68904 -2.91755,2.80447 -2.22855,4.72428 0.68944,1.91998 2.8049,2.91755 4.72476,2.22815 1.91942,-0.68904 2.9175498,-2.80446 2.22811,-4.72427"
       style="fill:#100f0d;fill-opacity:1;fill-rule:nonzero;stroke:none;stroke-width:0.04366284"
       id="path1039"
       inkscape:connector-curvature="0" /><path
       sodipodi:nodetypes="cccsaaaaaaaaasccsc"
       inkscape:connector-curvature="0"
       d="m 5.9554602,145.32358 c 2.80315,7.81142 4.00638,11.2172 7.3597498,17.28769 m 5.34898,9.73104 c 3.36689,5.31434 6.65342,9.46476 10.77315,14.19865 6.86016,7.88285 13.70769,16.54001 23.02036,21.28083 7.82428,3.98312 17.23779,6.8905 25.83706,5.11933 7.0424,-1.4505 14.43161,-5.85001 17.78037,-12.2128 3.54847,-6.74224 2.72314,-15.7413 0,-22.85706 -3.02697,-7.90968 -9.71223,-14.5383 -16.96214,-18.91601 -8.65062,-5.2235 -19.30428,-7.87596 -29.39851,-7.40209 -8.38148,0.39347 -16.7271,3.7795 -23.72711,8.40593 -7.39829,4.88966 -15.2586,11.1552 -18.0027498,19.58806 -2.23995,6.88341 -1.92988,15.82789 2.4711698,21.57501 5.63972,7.36465 16.61921,11.0041 25.86572,10.26477 2.69628,-0.21559 5.27265,-0.99051 7.73726,-2.13584 m 10.14934,-6.83427 c 1.93305,-1.63802 3.78575,-3.35118 5.56399,-5.003 6.22014,-5.77794 14.6122,-20.86039 14.6122,-20.86039"
       style="fill:none;stroke:#100f0d;stroke-width:2.18314195;stroke-linecap:butt;stroke-linejoin:miter;stroke-miterlimit:10;stroke-dasharray:none;stroke-opacity:1"
       id="path1041" /><path
       d="m 71.9012,173.75255 c 1.59151,-1.27579 3.91655,-1.01962 5.19238,0.57202 1.2754,1.59151 1.01953,3.91652 -0.57198,5.19191 -1.59151,1.27583 -3.91656,1.01953 -5.19239,-0.57199 -1.27539,-1.59151 -1.01952,-3.91651 0.57199,-5.19194"
       style="fill:#100f0d;fill-opacity:1;fill-rule:nonzero;stroke:none;stroke-width:0.04366284"
       id="path1043"
       inkscape:connector-curvature="0" /><path
       sodipodi:nodetypes="casccsaaaasccsaaac"
       inkscape:connector-curvature="0"
       d="m 5.5724647,28.063561 c 2.80315,7.81142 4.7818893,13.07842 8.1352593,19.14891 4.33247,7.84293 9.46456,15.30953 15.34662,22.06847 4.74915,5.45714 9.49226,11.28538 15.05137,15.92845 m 10.37514,6.51769 c 7.30311,3.35522 15.69637,5.54708 23.43091,3.95402 7.0424,-1.45051 14.43161,-5.85001 17.78037,-12.2128 3.548466,-6.74224 2.72314,-15.7413 0,-22.85706 -3.02697,-7.90968 -9.71223,-14.5383 -16.96214,-18.91601 -8.65062,-5.2235 -19.30428,-7.87596 -29.39851,-7.40209 -8.38148,0.39347 -16.7271,3.7795 -23.72711,8.40593 -1.99234,1.31677 -4.01818,2.73332 -5.96859,4.26511 m -8.20006,8.11736 c -1.6554297,2.21128 -2.9879693,4.60541 -3.8340993,7.20559 -2.23994,6.88341 -1.92988,15.82789 2.4711693,21.57501 5.63972,7.36465 16.61921,11.00412 25.86572,10.26477 9.07037,-0.72525 16.78379,-7.78027 23.45059,-13.97311 6.22015,-5.77793 14.6122,-20.86039 14.6122,-20.86039"
       style="fill:none;stroke:#100f0d;stroke-width:2.18314195;stroke-linecap:butt;stroke-linejoin:miter;stroke-miterlimit:10;stroke-dasharray:none;stroke-opacity:1"
       id="path1045" /><path
       d="m 9.4328343,26.488471 c -0.6889996,-1.91999 -2.8048996,-2.91755 -4.7243196,-2.22816 -1.91985,0.68904 -2.91755,2.80447 -2.22855,4.72428 0.68944,1.91998 2.8049,2.91755 4.72476,2.22815 1.9194196,-0.68904 2.9175493,-2.80446 2.2281096,-4.72427"
       style="fill:#100f0d;fill-opacity:1;fill-rule:nonzero;stroke:none;stroke-width:0.04366284"
       id="path1047"
       inkscape:connector-curvature="0" /><path
       d="m 71.807834,56.003201 c 1.59151,-1.27579 3.91655,-1.01962 5.19238,0.57202 1.2754,1.59151 1.01953,3.91652 -0.57198,5.19191 -1.59151,1.27583 -3.91656,1.01953 -5.19239,-0.57199 -1.27539,-1.59151 -1.01952,-3.91651 0.57199,-5.19194"
       style="fill:#100f0d;fill-opacity:1;fill-rule:nonzero;stroke:none;stroke-width:0.04366284"
       id="path1049"
       inkscape:connector-curvature="0" /><text
       transform="scale(1,-1)"
       id="text1053"
       y="-138.34663"
       x="39.963249"
       style="font-style:normal;font-variant:normal;font-weight:bold;font-stretch:normal;font-size:33.75px;line-height:0px;font-family:arial;-inkscape-font-specification:'arial Bold';letter-spacing:0px;word-spacing:0px;fill:#000000;fill-opacity:1;stroke:none;stroke-width:0.75px;stroke-linecap:butt;stroke-linejoin:miter;stroke-opacity:1"
       xml:space="preserve"><tspan
         style="font-style:normal;font-variant:normal;font-weight:normal;font-stretch:normal;font-size:12px;font-family:Arial;-inkscape-font-specification:Arial;stroke-width:0.75px"
         y="-138.34663"
         x="39.963249"
         id="tspan1051"
         sodipodi:role="line">2<tspan
   style="font-size:65%;baseline-shift:sub"
   id="tspan1148">1</tspan></tspan></text>
<text
       xml:space="preserve"
       style="font-style:normal;font-variant:normal;font-weight:bold;font-stretch:normal;font-size:33.75px;line-height:0px;font-family:arial;-inkscape-font-specification:'arial Bold';letter-spacing:0px;word-spacing:0px;fill:#000000;fill-opacity:1;stroke:none;stroke-width:0.75px;stroke-linecap:butt;stroke-linejoin:miter;stroke-opacity:1"
       x="42.061867"
       y="-19.959377"
       id="text1057"
       transform="scale(1,-1)"><tspan
         sodipodi:role="line"
         id="tspan1055"
         x="42.061867"
         y="-19.959377"
         style="font-style:normal;font-variant:normal;font-weight:normal;font-stretch:normal;font-size:12px;font-family:Arial;-inkscape-font-specification:Arial;stroke-width:0.75px">2<tspan
   style="font-size:65%;baseline-shift:sub"
   id="tspan1150">1</tspan>m</tspan></text>
<text
       xml:space="preserve"
       style="font-style:normal;font-variant:normal;font-weight:bold;font-stretch:normal;font-size:33.75px;line-height:0px;font-family:arial;-inkscape-font-specification:'arial Bold';letter-spacing:0px;word-spacing:0px;fill:#000000;fill-opacity:1;stroke:none;stroke-width:0.75px;stroke-linecap:butt;stroke-linejoin:miter;stroke-opacity:1"
       x="177.71346"
       y="-138.34663"
       id="text1093"
       transform="scale(1,-1)"><tspan
         sodipodi:role="line"
         id="tspan1091"
         x="177.71346"
         y="-138.34663"
         style="font-style:normal;font-variant:normal;font-weight:normal;font-stretch:normal;font-size:12px;font-family:Arial;-inkscape-font-specification:Arial;stroke-width:0.75px">2<tspan
   style="font-size:65%;baseline-shift:sub"
   id="tspan1152">1</tspan>s</tspan></text>
<text
       transform="scale(1,-1)"
       id="text1097"
       y="-19.959377"
       x="176.74121"
       style="font-style:normal;font-variant:normal;font-weight:bold;font-stretch:normal;font-size:33.75px;line-height:0px;font-family:arial;-inkscape-font-specification:'arial Bold';letter-spacing:0px;word-spacing:0px;fill:#000000;fill-opacity:1;stroke:none;stroke-width:0.75px;stroke-linecap:butt;stroke-linejoin:miter;stroke-opacity:1"
       xml:space="preserve"><tspan
         style="font-style:normal;font-variant:normal;font-weight:normal;font-stretch:normal;font-size:12px;font-family:Arial;-inkscape-font-specification:Arial;stroke-width:0.75px"
         y="-19.959377"
         x="176.74121"
         id="tspan1095"
         sodipodi:role="line">2<tspan
   style="font-size:65%;baseline-shift:sub"
   id="tspan1154">1</tspan>ms</tspan></text>
<g
       id="g1125"
       transform="matrix(-1,0,0,1,1083.5194,-466.54696)"><path
         d="m 854.80627,610.78478 c -0.689,-1.91999 -2.8049,-2.91755 -4.72432,-2.22816 -1.91985,0.68904 -2.91755,2.80447 -2.22855,4.72428 0.68944,1.91998 2.8049,2.91755 4.72476,2.22815 1.91942,-0.68904 2.91755,-2.80446 2.22811,-4.72427"
         style="fill:#100f0d;fill-opacity:1;fill-rule:nonzero;stroke:none;stroke-width:0.04366284"
         id="path1079"
         inkscape:connector-curvature="0" /><path
         sodipodi:nodetypes="cccsaaaaaaaaasccsc"
         inkscape:connector-curvature="0"
         d="m 851.23553,611.87054 c 2.80315,7.81142 4.00638,11.2172 7.35975,17.28769 m 5.34898,9.73104 c 3.36689,5.31434 6.65342,9.46476 10.77315,14.19865 6.86016,7.88285 13.70769,16.54001 23.02036,21.28083 7.82428,3.98312 17.23779,6.8905 25.83706,5.11933 7.0424,-1.4505 14.43161,-5.85001 17.78037,-12.2128 3.54847,-6.74224 2.72314,-15.7413 0,-22.85706 -3.02697,-7.90968 -9.71223,-14.5383 -16.96214,-18.91601 -8.65062,-5.2235 -19.30428,-7.87596 -29.39851,-7.40209 -8.38148,0.39347 -16.7271,3.7795 -23.72711,8.40593 -7.39829,4.88966 -15.2586,11.1552 -18.00275,19.58806 -2.23995,6.88341 -1.92988,15.82789 2.47117,21.57501 5.63972,7.36465 16.61921,11.0041 25.86572,10.26477 2.69628,-0.21559 5.27265,-0.99051 7.73726,-2.13584 m 10.14934,-6.83427 c 1.93305,-1.63802 3.78575,-3.35118 5.56399,-5.003 6.22014,-5.77794 14.6122,-20.86039 14.6122,-20.86039"
         style="fill:none;stroke:#100f0d;stroke-width:2.18314195;stroke-linecap:butt;stroke-linejoin:miter;stroke-miterlimit:10;stroke-dasharray:none;stroke-opacity:1"
         id="path1081" /><path
         d="m 917.18127,640.29951 c 1.59151,-1.27579 3.91655,-1.01962 5.19238,0.57202 1.2754,1.59151 1.01953,3.91652 -0.57198,5.19191 -1.59151,1.27583 -3.91656,1.01953 -5.19239,-0.57199 -1.27539,-1.59151 -1.01952,-3.91651 0.57199,-5.19194"
         style="fill:#100f0d;fill-opacity:1;fill-rule:nonzero;stroke:none;stroke-width:0.04366284"
         id="path1083"
         inkscape:connector-curvature="0" /></g><g
       id="g1117"
       transform="matrix(-1,0,0,1,1081.7646,-452.50873)"><path
         sodipodi:nodetypes="casccsaaaasccsaaac"
         inkscape:connector-curvature="0"
         d="m 849.53645,480.57229 c 2.80315,7.81142 4.78189,13.07842 8.13526,19.14891 4.33247,7.84293 9.46456,15.30953 15.34662,22.06847 4.74915,5.45714 9.49226,11.28538 15.05137,15.92845 m 10.37514,6.51769 c 7.30311,3.35522 15.69637,5.54708 23.43091,3.95402 7.0424,-1.45051 14.43161,-5.85001 17.78037,-12.2128 3.54847,-6.74224 2.72314,-15.7413 0,-22.85706 -3.02697,-7.90968 -9.71223,-14.5383 -16.96214,-18.91601 -8.65062,-5.2235 -19.30428,-7.87596 -29.39851,-7.40209 -8.38148,0.39347 -16.7271,3.7795 -23.72711,8.40593 -1.99234,1.31677 -4.01818,2.73332 -5.96859,4.26511 m -8.20006,8.11736 c -1.65543,2.21128 -2.98797,4.60541 -3.8341,7.20559 -2.23994,6.88341 -1.92988,15.82789 2.47117,21.57501 5.63972,7.36465 16.61921,11.00412 25.86572,10.26477 9.07037,-0.72525 16.78379,-7.78027 23.45059,-13.97311 6.22015,-5.77793 14.6122,-20.86039 14.6122,-20.86039"
         style="fill:none;stroke:#100f0d;stroke-width:2.18314195;stroke-linecap:butt;stroke-linejoin:miter;stroke-miterlimit:10;stroke-dasharray:none;stroke-opacity:1"
         id="path1085" /><path
         d="m 853.39682,478.9972 c -0.689,-1.91999 -2.8049,-2.91755 -4.72432,-2.22816 -1.91985,0.68904 -2.91755,2.80447 -2.22855,4.72428 0.68944,1.91998 2.8049,2.91755 4.72476,2.22815 1.91942,-0.68904 2.91755,-2.80446 2.22811,-4.72427"
         style="fill:#100f0d;fill-opacity:1;fill-rule:nonzero;stroke:none;stroke-width:0.04366284"
         id="path1087"
         inkscape:connector-curvature="0" /><path
         d="m 915.77182,508.51193 c 1.59151,-1.27579 3.91655,-1.01962 5.19238,0.57202 1.2754,1.59151 1.01953,3.91652 -0.57198,5.19191 -1.59151,1.27583 -3.91656,1.01953 -5.19239,-0.57199 -1.27539,-1.59151 -1.01952,-3.91651 0.57199,-5.19194"
         style="fill:#100f0d;fill-opacity:1;fill-rule:nonzero;stroke:none;stroke-width:0.04366284"
         id="path1089"
         inkscape:connector-curvature="0" /></g></g></svg>