<?xml version="1.0" encoding="UTF-8" standalone="no"?>
<!-- Created with Inkscape (http://www.inkscape.org/) -->

<svg
   xmlns:dc="http://purl.org/dc/elements/1.1/"
   xmlns:cc="http://creativecommons.org/ns#"
   xmlns:rdf="http://www.w3.org/1999/02/22-rdf-syntax-ns#"
   xmlns:svg="http://www.w3.org/2000/svg"
   xmlns="http://www.w3.org/2000/svg"
   xmlns:sodipodi="http://sodipodi.sourceforge.net/DTD/sodipodi-0.dtd"
   xmlns:inkscape="http://www.inkscape.org/namespaces/inkscape"
   version="1.1"
   id="svg2"
   xml:space="preserve"
   width="589.33331"
   height="508"
   viewBox="0 0 589.33331 508"
   sodipodi:docname="labeled_bifoil.svg"
   inkscape:version="0.92.0 r"><metadata
     id="metadata8"><rdf:RDF><cc:Work
         rdf:about=""><dc:format>image/svg+xml</dc:format><dc:type
           rdf:resource="http://purl.org/dc/dcmitype/StillImage" /><dc:title /></cc:Work></rdf:RDF></metadata><defs
     id="defs6"><clipPath
       clipPathUnits="userSpaceOnUse"
       id="clipPath20"><path
         d="M 0,0 H 4420 V 3806.67 H 0 Z"
         id="path18"
         inkscape:connector-curvature="0" /></clipPath></defs><sodipodi:namedview
     pagecolor="#ffffff"
     bordercolor="#666666"
     borderopacity="1"
     objecttolerance="10"
     gridtolerance="10"
     guidetolerance="10"
     inkscape:pageopacity="0"
     inkscape:pageshadow="2"
     inkscape:window-width="1380"
     inkscape:window-height="1096"
     id="namedview4"
     showgrid="false"
     inkscape:zoom="1.3139937"
     inkscape:cx="-192.13994"
     inkscape:cy="62.333322"
     inkscape:window-x="0"
     inkscape:window-y="0"
     inkscape:window-maximized="0"
     inkscape:current-layer="g10" /><g
     id="g10"
     inkscape:groupmode="layer"
     inkscape:label="labeled_bifoil"
     transform="matrix(1.3333333,0,0,-1.3333333,0,508)"><path
       style="fill:#ffa9a9;stroke:none;stroke-width:2.66666651;stroke-linecap:butt;stroke-linejoin:miter;stroke-miterlimit:10;stroke-dasharray:none;stroke-opacity:1;fill-opacity:1"
       d="M 1.3339844 1.7773438 L 1.3339844 506.66602 L 588 506.66602 L 588 1.7773438 L 1.3339844 1.7773438 z M 219.13086 78.294922 C 244.46157 78.189023 269.95359 86.89698 289.12109 103.63281 C 321.52909 131.93148 324.22514 173.02604 324.86914 182.85938 C 326.10914 201.77404 322.3444 214.80843 320.03906 225.37109 C 319.24973 228.98576 318.45708 233.02687 317.70508 237.4082 L 316.34766 246.95703 C 319.38767 246.7772 317.08006 246.71077 319.99805 246.51172 C 405.91608 240.65063 439.73983 227.20412 468.83008 250.49219 C 502.22074 277.22419 516.19199 341.79947 486.22266 379.96094 C 454.98666 419.7344 387.47931 416.22367 348.05664 387.69141 C 336.24864 379.14447 328.10149 366.77703 322.66016 352.45703 L 319.99414 343.23242 C 316.82891 343.80544 317.70348 344.03125 314.40625 344.51562 C 275.46366 350.23648 228.01492 349.05369 188.63672 323.92188 C 174.83672 315.11388 124.04422 279.62232 117.14062 215.70898 C 113.07703 178.09165 122.37253 113.53383 175.11133 88.173828 C 188.79333 81.594828 203.93243 78.358461 219.13086 78.294922 z "
       transform="matrix(0.75000002,0,0,-0.75000002,0,381.00001)"
       id="path4693" /><path
       inkscape:connector-curvature="0"
       id="path22"
       style="fill:none;stroke:#231f20;stroke-width:4;stroke-linecap:butt;stroke-linejoin:miter;stroke-miterlimit:10;stroke-dasharray:none;stroke-opacity:1"
       d="m 238.279,202.944 c 0.564,3.286 1.158,6.316 1.75,9.027 1.729,7.922 4.553,17.698 3.623,31.884 -0.483,7.375 -2.505,38.197 -26.811,59.421 -23.001,20.083 -58.144,24.752 -85.508,11.594 -39.5541,-19.02 -46.5256,-67.439 -43.4779,-95.652 5.1777,-47.935 43.2729,-74.554 53.6229,-81.16 51.868,-33.103 122.403,-10.805 144.268,-2.357" /><path
       inkscape:connector-curvature="0"
       id="path24"
       style="fill:#231f20;fill-opacity:1;fill-rule:nonzero;stroke:none;stroke-width:0.1"
       d="m 288.226,128.653 c 3.842,1.574 5.682,5.967 4.107,9.809 -1.574,3.842 -5.966,5.682 -9.809,4.107 -3.842,-1.574 -5.681,-5.966 -4.107,-9.809 1.574,-3.842 5.967,-5.681 9.809,-4.107" /><path
       inkscape:connector-curvature="0"
       id="path26"
       style="fill:none;stroke:#231f20;stroke-width:4;stroke-linecap:butt;stroke-linejoin:miter;stroke-miterlimit:10;stroke-dasharray:none;stroke-opacity:1"
       d="m 237.823,131.094 c -4.027,19.054 -3.509,40.392 -1.51,58.019" /><path
       inkscape:connector-curvature="0"
       id="path28"
       style="fill:none;stroke:#231f20;stroke-width:4;stroke-linecap:butt;stroke-linejoin:miter;stroke-miterlimit:10;stroke-dasharray:none;stroke-opacity:1"
       d="m 136.281,196.223 c 17.36,-1.211 41.318,-2.273 69.69,-1.643 90.269,2.005 120.348,18.808 145.652,-1.449 25.043,-20.049 35.521,-68.481 13.044,-97.1021 C 341.24,66.1988 290.61,68.8328 261.043,90.232 c -8.856,6.4102 -14.967,15.685 -19.048,26.425" /><path
       inkscape:connector-curvature="0"
       id="path30"
       style="fill:#231f20;fill-opacity:1;fill-rule:nonzero;stroke:none;stroke-width:0.1"
       d="m 136.141,188.732 c -4.143,0.287 -7.269,3.88 -6.982,8.022 0.288,4.142 3.88,7.269 8.022,6.981 4.143,-0.287 7.269,-3.879 6.981,-8.021 -0.287,-4.143 -3.879,-7.269 -8.021,-6.982" /><path
       inkscape:connector-curvature="0"
       id="path32"
       style="fill:none;stroke:#231f20;stroke-width:2;stroke-linecap:butt;stroke-linejoin:miter;stroke-miterlimit:10;stroke-dasharray:none;stroke-opacity:1"
       d="M 441,1 H 1 v 378.667 h 440 z" /><g
       id="g34"><text
         id="text44"
         style="font-variant:normal;font-weight:normal;font-size:17px;font-family:Arial;-inkscape-font-specification:ArialMT;writing-mode:lr-tb;fill:#231f20;fill-opacity:1;fill-rule:nonzero;stroke:none"
         transform="matrix(1,0,0,-1,149,268.334)"><tspan
           id="tspan36"
           sodipodi:role="line"
           y="0"
           x="0 3.7739999 13.226 21.726 25.5 34.952">inside</tspan><tspan
           id="tspan38"
           sodipodi:role="line"
           y="20.4"
           x="0 5.6609998 15.113 24.565001 28.339001 37.791">region</tspan><tspan
           id="tspan40"
           sodipodi:role="line"
           y="108.2301"
           x="155.33299 159.10699 168.55901 177.05901 180.83299 190.285">inside</tspan><tspan
           id="tspan42"
           sodipodi:role="line"
           y="128.6301"
           x="155.33299 160.994 170.446 179.89799 183.672 193.12399">region</tspan></text>
</g><text
       transform="scale(1,-1)"
       style="font-variant:normal;font-weight:normal;font-size:21px;font-family:Arial;-inkscape-font-specification:ArialMT;writing-mode:lr-tb;fill:#b90000;fill-opacity:1;fill-rule:nonzero;stroke:none;"
       id="text52"
       x="69.666397"
       y="-58"><tspan
         x="69.666397 81.3424 93.018402 98.8564 109.3564 114.0184 125.6944"
         y="-58"
         sodipodi:role="line"
         id="tspan48">outside</tspan><tspan
         x="69.666397 76.659401 88.335403 100.0114 104.6734 116.3494"
         y="-32.799999"
         sodipodi:role="line"
         id="tspan50">region</tspan></text>
<g
       id="g54"><text
         id="text58"
         style="font-variant:normal;font-weight:normal;font-size:17px;font-family:Arial;-inkscape-font-specification:ArialMT;writing-mode:lr-tb;fill:#231f20;fill-opacity:1;fill-rule:nonzero;stroke:none"
         transform="matrix(1,0,0,-1,182.333,203.023)"><tspan
           id="tspan56"
           y="0"
           x="0">0</tspan></text>
</g><text
       transform="scale(1,-1)"
       style="font-variant:normal;font-weight:normal;font-size:21px;font-family:Arial;-inkscape-font-specification:ArialMT;writing-mode:lr-tb;fill:#b90000;fill-opacity:1;fill-rule:nonzero;stroke:none;"
       id="text64"
       x="322.33301"
       y="-209.02299"><tspan
         x="322.33301"
         y="-209.02299"
         id="tspan62"
         style="fill:#b90000;fill-opacity:1;">1</tspan></text>
<g
       id="g66"><text
         id="text70"
         style="font-variant:normal;font-weight:normal;font-size:17px;font-family:Arial;-inkscape-font-specification:ArialMT;writing-mode:lr-tb;fill:#231f20;fill-opacity:1;fill-rule:nonzero;stroke:none"
         transform="matrix(1,0,0,-1,246.333,153.689)"><tspan
           id="tspan68"
           y="0"
           x="0">2</tspan></text>
</g><text
       transform="scale(1,-1)"
       style="font-variant:normal;font-weight:normal;font-size:21px;font-family:Arial;-inkscape-font-specification:ArialMT;writing-mode:lr-tb;fill:#b90000;fill-opacity:1;fill-rule:nonzero;stroke:none;"
       id="text76"
       x="173.66701"
       y="-329.689"><tspan
         x="173.66701"
         y="-329.689"
         id="tspan74"
         style="fill:#b90000;fill-opacity:1;">3</tspan></text>
<g
       id="g78"><text
         id="text82"
         style="font-variant:normal;font-weight:normal;font-size:17px;font-family:Arial;-inkscape-font-specification:ArialMT;writing-mode:lr-tb;fill:#231f20;fill-opacity:1;fill-rule:nonzero;stroke:none"
         transform="matrix(1,0,0,-1,267.667,106.356)"><tspan
           id="tspan80"
           y="0"
           x="0">4</tspan></text>
</g><text
       transform="scale(1,-1)"
       style="font-variant:normal;font-weight:normal;font-size:21px;font-family:Arial;-inkscape-font-specification:ArialMT;writing-mode:lr-tb;fill:#b90000;fill-opacity:1;fill-rule:nonzero;stroke:none;"
       id="text90"
       x="333.33301"
       y="-337.33401"><tspan
         x="333.33301 345.009 356.685 362.52301 373.02301 377.685 389.36099"
         y="-337.33401"
         sodipodi:role="line"
         id="tspan86">outside</tspan><tspan
         x="333.33301 340.32599 352.00201 363.67801 368.34 380.01599"
         y="-312.13361"
         sodipodi:role="line"
         id="tspan88">region</tspan></text>
</g></svg>